<svg width="10" height="10" viewBox="0 0 10 10" fill="none" xmlns="http://www.w3.org/2000/svg">
<path d="M7.27088 9.21577C6.82774 9.21577 6.36108 9.10988 5.87872 8.90596C5.40813 8.70596 4.93363 8.43145 4.47088 8.09812C4.01206 7.76086 3.56892 7.38439 3.14931 6.97263C2.73362 6.55302 2.35715 6.10988 2.02382 5.65498C1.68657 5.18439 1.41598 4.7138 1.22382 4.2589C1.0199 3.77263 0.917938 3.30204 0.917938 2.8589C0.917938 2.55302 0.97284 2.26282 1.07872 1.99224C1.18853 1.71381 1.365 1.45498 1.60421 1.23145C1.90617 0.933413 2.25127 0.784393 2.6199 0.784393C2.77284 0.784393 2.9297 0.819687 3.06304 0.882433C3.21598 0.953021 3.34539 1.0589 3.43951 1.20008L4.34931 2.48243C4.43166 2.59616 4.49441 2.70596 4.53755 2.81577C4.58853 2.93341 4.61598 3.05106 4.61598 3.16479C4.61598 3.31381 4.57284 3.4589 4.49049 3.59616C4.43166 3.70204 4.34147 3.81577 4.22774 3.92949L3.96108 4.20792C3.965 4.21969 3.96892 4.22753 3.97284 4.23537C4.0199 4.31773 4.11402 4.4589 4.29441 4.67067C4.48657 4.89028 4.66696 5.09028 4.84735 5.27459C5.07872 5.50204 5.27088 5.68243 5.45127 5.83145C5.6748 6.01969 5.8199 6.11381 5.90617 6.15694L5.89833 6.17655L6.18461 5.8942C6.30617 5.77263 6.42382 5.68243 6.53755 5.62361C6.75323 5.49028 7.02774 5.46675 7.30225 5.58047C7.40421 5.62361 7.51402 5.68243 7.63166 5.76479L8.93363 6.69028C9.07872 6.78831 9.18461 6.91381 9.24735 7.06282C9.30617 7.21184 9.33362 7.3491 9.33362 7.48635C9.33362 7.67459 9.29049 7.86282 9.20813 8.0393C9.12578 8.21577 9.02382 8.36871 8.89441 8.50988C8.67088 8.75694 8.42774 8.93341 8.14539 9.04714C7.8748 9.15694 7.58068 9.21577 7.27088 9.21577ZM2.6199 1.37263C2.40421 1.37263 2.20421 1.46675 2.01206 1.65498C1.83166 1.82361 1.70617 2.00792 1.62774 2.20792C1.54539 2.41184 1.50617 2.62753 1.50617 2.8589C1.50617 3.22361 1.59245 3.61969 1.765 4.02753C1.94147 4.44322 2.18853 4.87459 2.50225 5.30596C2.81598 5.73733 3.17284 6.15694 3.565 6.55302C3.95715 6.94126 4.38068 7.30204 4.81598 7.61969C5.23951 7.92949 5.6748 8.18047 6.10617 8.36086C6.77676 8.64714 7.40421 8.71381 7.92186 8.49812C8.12186 8.41577 8.29833 8.29028 8.45912 8.10988C8.54931 8.01184 8.6199 7.90596 8.67872 7.78047C8.72578 7.68243 8.74931 7.58047 8.74931 7.47851C8.74931 7.41577 8.73755 7.35302 8.70617 7.28243C8.69441 7.2589 8.67088 7.21577 8.59637 7.16479L7.29441 6.2393C7.21598 6.18439 7.14539 6.14518 7.07872 6.11773C6.99245 6.08243 6.95715 6.04714 6.82382 6.12949C6.74539 6.16871 6.6748 6.22753 6.59637 6.30596L6.29833 6.60008C6.14539 6.7491 5.9101 6.78439 5.7297 6.71773L5.62382 6.67067C5.46304 6.58439 5.2748 6.45106 5.06696 6.27459C4.87872 6.11381 4.6748 5.92557 4.42774 5.68243C4.23559 5.48635 4.04343 5.27851 3.84343 5.04714C3.65911 4.83145 3.52578 4.64714 3.44343 4.4942L3.39637 4.37655C3.37284 4.28635 3.365 4.23537 3.365 4.18047C3.365 4.0393 3.41598 3.9138 3.51402 3.81577L3.80813 3.50988C3.88657 3.43145 3.94539 3.35694 3.98461 3.29028C4.01598 3.2393 4.02774 3.19616 4.02774 3.15694C4.02774 3.12557 4.01598 3.07851 3.99637 3.03145C3.96892 2.96871 3.92578 2.89812 3.87088 2.82361L2.96108 1.53733C2.92186 1.48243 2.8748 1.44322 2.81598 1.41577C2.75323 1.38831 2.68657 1.37263 2.6199 1.37263ZM5.89833 6.18047L5.83559 6.44714L5.94147 6.17263C5.92186 6.16871 5.90617 6.17263 5.89833 6.18047Z" fill="#292D32"/>
</svg>
