<svg width="24" height="24" viewBox="0 0 24 24" fill="none" xmlns="http://www.w3.org/2000/svg">
<circle cx="12" cy="12" r="5" fill="#92A1AD" fill-opacity="0.27"/>
<path d="M12 3C10.9767 3 9.95334 3.11763 8.95043 3.35288C6.17301 4.00437 4.00437 6.17301 3.35288 8.95043C2.88237 10.9563 2.88237 13.0437 3.35288 15.0496C4.00437 17.827 6.17301 19.9956 8.95044 20.6471C10.9563 21.1176 13.0437 21.1176 15.0496 20.6471C17.827 19.9956 19.9956 17.827 20.6471 15.0496C20.8824 14.0466 21 13.0233 21 12" stroke="#3DD598" stroke-width="1.5" stroke-linecap="round"/>
<path d="M3.35288 15.0496C2.88237 13.0437 2.88237 10.9563 3.35288 8.95043C4.00437 6.17301 6.17301 4.00437 8.95043 3.35288C9.95334 3.11763 10.9767 3 12 3M8.95044 20.6471C10.9563 21.1176 13.0437 21.1176 15.0496 20.6471C17.827 19.9956 19.9956 17.827 20.6471 15.0496C20.8824 14.0466 21 13.0233 21 12" stroke="#1C1C28" stroke-width="1.5" stroke-linecap="round"/>
<path d="M22 5C22 6.65685 20.6569 8 19 8C17.3431 8 16 6.65685 16 5C16 3.34315 17.3431 2 19 2C20.6569 2 22 3.34315 22 5Z" fill="#3DD598"/>
</svg>
