<svg width="16" height="16" viewBox="0 0 16 16" fill="none" xmlns="http://www.w3.org/2000/svg">
<path d="M8.93332 11.6133H7.25998C6.16665 11.6133 5.27998 10.6933 5.27998 9.55999C5.27998 9.28666 5.50665 9.05999 5.77998 9.05999C6.05332 9.05999 6.27998 9.28666 6.27998 9.55999C6.27998 10.14 6.71998 10.6133 7.25998 10.6133H8.93332C9.36665 10.6133 9.72665 10.2267 9.72665 9.75999C9.72665 9.17999 9.51998 9.06666 9.17998 8.94666L6.49332 7.99999C5.97332 7.81999 5.27332 7.43332 5.27332 6.23999C5.27332 5.21332 6.07998 4.38666 7.06665 4.38666H8.73998C9.83332 4.38666 10.72 5.30666 10.72 6.43999C10.72 6.71332 10.4933 6.93999 10.22 6.93999C9.94665 6.93999 9.71998 6.71332 9.71998 6.43999C9.71998 5.85999 9.27998 5.38666 8.73998 5.38666H7.06665C6.63332 5.38666 6.27332 5.77332 6.27332 6.23999C6.27332 6.81999 6.47998 6.93332 6.81998 7.05332L9.50665 7.99999C10.0266 8.17999 10.7266 8.56666 10.7266 9.75999C10.72 10.78 9.91998 11.6133 8.93332 11.6133Z" fill="#3DD598"/>
<path d="M8 12.5C7.72667 12.5 7.5 12.2733 7.5 12V4C7.5 3.72667 7.72667 3.5 8 3.5C8.27333 3.5 8.5 3.72667 8.5 4V12C8.5 12.2733 8.27333 12.5 8 12.5Z" fill="#3DD598"/>
<path d="M7.99998 15.1667C4.04665 15.1667 0.833313 11.9533 0.833313 8.00001C0.833313 4.04668 4.04665 0.833344 7.99998 0.833344C11.9533 0.833344 15.1666 4.04668 15.1666 8.00001C15.1666 11.9533 11.9533 15.1667 7.99998 15.1667ZM7.99998 1.83334C4.59998 1.83334 1.83331 4.60001 1.83331 8.00001C1.83331 11.4 4.59998 14.1667 7.99998 14.1667C11.4 14.1667 14.1666 11.4 14.1666 8.00001C14.1666 4.60001 11.4 1.83334 7.99998 1.83334Z" fill="#3DD598"/>
</svg>
