<svg width="35" height="37" viewBox="0 0 35 37" fill="none" xmlns="http://www.w3.org/2000/svg">
<path fill-rule="evenodd" clip-rule="evenodd" d="M0.0985718 18.3952L0.100309 18.2148L0.103892 18.0343L0.109329 17.8539L0.116611 17.6734L0.125757 17.4929L0.136748 17.3124L0.149602 17.132L0.164302 16.9516L0.180865 16.7713L0.199283 16.591L0.219554 16.411L0.241672 16.2309L0.265652 16.0511L0.291487 15.8714L0.319167 15.6919L0.348702 15.5127L0.380091 15.3336L0.413316 15.1548L0.448395 14.9762L0.48532 14.7979L0.524091 14.6198L0.564688 14.4421L0.60714 14.2648L0.651411 14.0877L0.697526 13.9111L0.74546 13.7348L0.795231 13.5589L0.846819 13.3834L0.900226 13.2084L0.955443 13.0339L1.01248 12.8598L1.07132 12.6862L1.13197 12.5131L1.1944 12.3405L1.25864 12.1685L1.32466 11.997L1.39247 11.8262L1.46205 11.6558L1.53341 11.4862L1.60653 11.3172L1.68141 11.1488L1.75805 10.9811L1.83644 10.8141L1.91657 10.6477L1.99844 10.4821L2.08204 10.3173L2.16736 10.1532L2.2544 9.98981L2.34313 9.82732L2.43357 9.66556L2.52572 9.50461L2.61953 9.34456L2.71503 9.18532L2.81219 9.02699L2.91102 8.86954L3.0115 8.71301L3.11362 8.55746L3.21739 8.40272L3.32277 8.24906L3.42977 8.0963L3.53838 7.94453L3.64858 7.79384L3.76037 7.64406L3.87374 7.49544L3.98868 7.34781L4.10517 7.20121L4.22321 7.05574L4.34279 6.91137L4.46389 6.76812L4.58651 6.62599L4.71063 6.48502L4.83624 6.34521L4.96334 6.20658L5.09191 6.06914L5.22193 5.93291L5.3534 5.7979L5.4863 5.66412L5.62062 5.5316L5.75636 5.40035L5.89349 5.27037L6.03201 5.1417L6.17189 5.01433L6.31314 4.88829L6.45574 4.76358L6.59966 4.64021L6.74491 4.51822L6.89145 4.3976L7.0393 4.27838L7.18842 4.16055L7.33881 4.04414L7.4904 3.92917L7.64334 3.81564L7.79745 3.70357L7.95273 3.59296L8.10918 3.48383L8.26688 3.3762L8.42567 3.27006L8.58563 3.16545L8.74677 3.06237L8.90907 2.96083L9.07236 2.86084L9.23682 2.7624L9.40227 2.66555L9.5688 2.57029L9.73641 2.47662L9.90501 2.38456L10.0746 2.29411L10.2452 2.2053L10.4168 2.11812L10.5893 2.03259L10.7628 1.94872L10.9372 1.86652L11.1125 1.786L11.2888 1.70717L11.4658 1.63004L11.6438 1.55461L11.8226 1.4809L12.0021 1.40892L12.1825 1.33866L12.3637 1.27016L12.5457 1.20339L12.7284 1.1384L12.9118 1.07516L13.096 1.0137L13.2808 0.954026L13.4664 0.896136L13.6526 0.840047L13.8395 0.785767L14.0269 0.733296L14.215 0.682634L14.4037 0.6338L14.5929 0.586802L14.7827 0.54165L14.9731 0.498325L15.1639 0.456863L15.3552 0.417246L15.547 0.379493L15.7393 0.343613L15.932 0.309595L16.1252 0.277459L16.3187 0.247204L16.5126 0.218831L16.7069 0.192357L16.9015 0.167773L17.0965 0.145089L17.2917 0.124295L17.4872 0.105428L17.683 0.0884596L17.8791 0.0733999L18.0753 0.0602664L19.1307 0L19.1909 5.08476L19.2254 5.08436L19.3711 5.08415L19.5168 5.08538L19.6626 5.08803L19.8085 5.09213L19.9543 5.09766L20.1002 5.10461L20.2462 5.113L20.3921 5.12284L20.5379 5.1341L20.6838 5.14682L20.8296 5.16097L20.9753 5.17656L21.1208 5.19358L21.2664 5.21204L21.4118 5.23194L21.5571 5.25328L21.7022 5.27606L21.8472 5.30028L21.9919 5.32592L22.1366 5.35301L22.281 5.38153L22.4251 5.41148L22.5691 5.44286L22.7128 5.47567L22.8562 5.50991L22.9994 5.54557L23.1423 5.58267L23.2848 5.62118L23.427 5.66111L23.5689 5.70245L23.7105 5.74521L23.8516 5.78938L23.9924 5.83497L24.1328 5.88196L24.2728 5.93034L24.4123 5.98013L24.5515 6.0313L24.6901 6.08388L24.8283 6.13784L24.966 6.19319L25.1032 6.24992L25.2398 6.30802L25.376 6.36749L25.5117 6.42833L25.6467 6.49053L25.7812 6.55409L25.9151 6.619L26.0485 6.68526L26.1811 6.75286L26.3132 6.8218L26.4446 6.89206L26.5754 6.96366L26.7055 7.03658L26.8349 7.1108L26.9637 7.18634L27.0917 7.26319L27.219 7.34133L27.3455 7.42072L27.4713 7.50147L27.5963 7.58338L27.7205 7.66665L27.844 7.75117L27.9666 7.83687L28.0885 7.92392L28.2095 8.01213L28.3296 8.10161L28.4489 8.19235L28.5673 8.28426L28.6849 8.37742L28.8015 8.47167L28.9172 8.56718L29.032 8.66395L29.1459 8.7618L29.2588 8.86081L29.3708 8.961L29.4817 9.06236L29.5917 9.16489L29.7007 9.2685L29.8087 9.37319L29.9157 9.47905L30.0216 9.58599L30.1265 9.6941L30.2304 9.8032L30.3331 9.91338L30.4348 10.0246L30.5354 10.137L30.6348 10.2503L30.7332 10.3647L30.8304 10.4801L30.9266 10.5965L31.0215 10.714L31.1153 10.8324L31.208 10.9517L31.2994 11.0721L31.3897 11.1934L31.4787 11.3157L31.5666 11.4389L31.6532 11.563L31.7386 11.688L31.8228 11.8139L31.9057 11.9407L31.9873 12.0685L32.0676 12.197L32.1467 12.3264L32.2245 12.4566L32.301 12.5877L32.3762 12.7196L32.4501 12.8523L32.5227 12.9857L32.5939 13.12L32.6637 13.255L32.7322 13.3907L32.7994 13.5272L32.8652 13.6645L32.9296 13.8024L32.9926 13.941L33.0543 14.0804L33.1145 14.2203L33.1733 14.361L33.2307 14.5023L33.2867 14.6442L33.3413 14.7867L33.3944 14.9299L33.446 15.0736L33.4963 15.218L33.5451 15.3628L33.5924 15.5083L33.6382 15.6542L33.6826 15.8007L33.7255 15.9477L33.7669 16.0951L33.8067 16.2431L33.8452 16.3915L33.882 16.5403L33.9175 16.6897L33.9513 16.8394L33.9836 16.9895L34.0145 17.1399L34.0438 17.2909L34.0715 17.4421L34.0978 17.5937L34.1224 17.7456L34.1456 17.8978L34.1672 18.0504L34.1872 18.2031L34.2056 18.3562L34.2225 18.5095L34.2378 18.6631L34.2516 18.8169L34.2639 18.9709L34.2745 19.1251L34.2835 19.2795L34.291 19.4339L34.2969 19.5887L34.3011 19.7434L34.3039 19.8983L34.305 20.0533L34.3045 20.2084L34.3025 20.3636L34.2988 20.5189L34.2936 20.6741L34.2867 20.8294L34.2783 20.9846L34.2683 21.1399L34.2567 21.2952L34.2434 21.4504L34.2286 21.6056L34.2122 21.7607L34.1941 21.9156L34.1745 22.0705L34.1533 22.2253L34.1304 22.3799L34.1061 22.5344L34.08 22.6887L34.0524 22.8428L34.0232 22.9967L33.9925 23.1505L33.96 23.3039L33.926 23.4571L33.8905 23.6102L33.8534 23.7628L33.8146 23.9152L33.7743 24.0673L33.7324 24.219L33.6889 24.3705L33.6439 24.5215L33.5973 24.6723L33.549 24.8225L33.4993 24.9725L33.448 25.1219L33.3951 25.271L33.3407 25.4196L33.2847 25.5677L33.2272 25.7153L33.1682 25.8625L33.1076 26.0091L33.0455 26.1552L32.9818 26.3009L32.9167 26.4458L32.85 26.5903L32.7817 26.7341L32.7121 26.8773L32.6408 27.02L32.5681 27.162L32.4939 27.3034L32.4182 27.444L32.341 27.5841L32.2624 27.7233L32.1823 27.8619L32.1007 27.9998L32.0178 28.1369L31.9333 28.2734L31.8473 28.409L31.76 28.5438L31.6714 28.6779L31.5812 28.8111L31.4896 28.9435L31.3966 29.0751L31.3023 29.2058L31.2065 29.3357L31.1094 29.4647L31.0109 29.5928L30.9111 29.7199L30.8099 29.8462L30.7074 29.9715L30.6035 30.0958L30.4983 30.2192L30.3918 30.3416L30.2839 30.4631L30.1748 30.5835L30.0645 30.703L29.9529 30.8213L29.8399 30.9387L29.7257 31.0549L29.6103 31.1702L29.4936 31.2843L29.3758 31.3974L29.2567 31.5093L29.1364 31.6201L29.0149 31.7299L28.8922 31.8383L28.7684 31.9457L28.6434 32.052L28.5173 32.1571L28.39 32.2609L28.2616 32.3636L28.1321 32.465L28.0015 32.5652L27.8698 32.6642L27.737 32.7619L27.6032 32.8584L27.4683 32.9536L27.3324 33.0475L27.1955 33.1402L27.0576 33.2314L26.9186 33.3215L26.7787 33.4102L26.6378 33.4975L26.4959 33.5836L26.3531 33.6682L26.2093 33.7516L26.0648 33.8335L25.9191 33.914L25.7727 33.9932L25.6254 34.0709L25.4772 34.1472L25.3281 34.2222L25.1783 34.2956L25.0276 34.3676L24.8761 34.4383L24.7238 34.5074L24.5707 34.5751L24.4169 34.6413L24.2623 34.706L24.1071 34.7693L23.9511 34.8311L23.7943 34.8913L23.6369 34.9501L23.4788 35.0072L23.3201 35.0629L23.1607 35.117L23.0008 35.1697L22.8401 35.2207L22.6789 35.2702L22.5171 35.3182L22.3548 35.3646L22.1919 35.4094L22.0285 35.4527L21.8645 35.4943L21.7001 35.5344L21.5352 35.5729L21.3697 35.6097L21.2039 35.645L21.0377 35.6786L20.871 35.7107L20.7039 35.7411L20.5365 35.7698L20.3686 35.797L20.2004 35.8226L20.0318 35.8464L19.863 35.8687L19.6939 35.8893L19.5244 35.9082L19.3547 35.9255L19.1848 35.9411L19.0146 35.9551L18.8442 35.9674L18.6736 35.978L18.5028 35.987L18.3319 35.9943L18.1608 35.9999L17.9895 36.0039L17.8182 36.0061L17.6467 36.0068L17.4753 36.0057L17.3037 36.0029L17.132 35.9985L16.9604 35.9923L16.7887 35.9844L16.617 35.975L16.4455 35.9637L16.2738 35.9509L16.1023 35.9363L15.9308 35.92L15.7594 35.9021L15.5882 35.8824L15.4171 35.8611L15.2461 35.8381L15.0753 35.8133L14.9046 35.7869L14.7342 35.7589L14.564 35.7291L14.394 35.6976L14.2243 35.6645L14.0548 35.6298L13.8856 35.5932L13.7167 35.5551L13.5482 35.5153L13.3799 35.4738L13.2121 35.4306L13.0445 35.3857L12.8775 35.3393L12.7107 35.2911L12.5444 35.2413L12.3786 35.1899L12.2132 35.1367L12.0483 35.082L11.8839 35.0256L11.7199 34.9675L11.5566 34.9079L11.3937 34.8466L11.2314 34.7837L11.0697 34.7192L10.9086 34.653L10.7481 34.5852L10.5882 34.5159L10.429 34.445L10.2704 34.3724L10.1125 34.2982L9.95533 34.2225L9.79888 34.1452L9.64306 34.0664L9.48805 33.986L9.33385 33.904L9.18029 33.8205L9.02762 33.7355L8.87576 33.6489L8.72471 33.5607L8.57447 33.4711L8.42513 33.38L8.27661 33.2873L8.12898 33.1932L7.98234 33.0975L7.83651 33.0005L7.69168 32.9018L7.54783 32.8018L7.40488 32.7004L7.26294 32.5974L7.12199 32.493L6.98205 32.3872L6.84314 32.28L6.70527 32.1714L6.56846 32.0613L6.43272 31.95L6.29806 31.8372L6.1645 31.723L6.03206 31.6075L5.90075 31.4906L5.77059 31.3724L5.64159 31.253L5.51375 31.1321L5.3871 31.01L5.26165 30.8865L5.13741 30.7618L5.0144 30.6359L4.89264 30.5086L4.77212 30.3802L4.65288 30.2505L4.53492 30.1195L4.41825 29.9873L4.30288 29.854L4.18884 29.7194L4.07613 29.5838L3.96477 29.4469L3.85476 29.3089L3.74613 29.1697L3.63887 29.0295L3.53301 28.888L3.42856 28.7455L3.32552 28.602L3.22391 28.4573L3.12375 28.3117L3.02504 28.1649L2.92779 28.0171L2.83202 27.8684L2.73773 27.7186L2.64494 27.5679L2.55367 27.4162L2.4639 27.2634L2.37568 27.1099L2.28898 26.9553L2.20383 26.7998L2.12025 26.6434L2.03823 26.4861L1.9578 26.3281L1.87894 26.1691L1.8017 26.0093L1.72606 25.8486L1.65203 25.6872L1.57963 25.5249L1.50886 25.362L1.43973 25.1982L1.37227 25.0337L1.30645 24.8684L1.2423 24.7024L1.17984 24.5358L1.11905 24.3685L1.05995 24.2005L1.00255 24.0319L0.946855 23.8626L0.892881 23.6927L0.840617 23.5222L0.790091 23.3512L0.741292 23.1795L0.694232 23.0073L0.648917 22.8347L0.605358 22.6615L0.563554 22.4878L0.523524 22.3136L0.485257 22.1388L0.448764 21.9638L0.414054 21.7882L0.381126 21.6123L0.349989 21.436L0.320653 21.2593L0.293107 21.0822L0.267371 20.9048L0.243445 20.727L0.221337 20.549L0.201038 20.3706L0.182558 20.1921L0.165904 20.0133L0.151079 19.8341L0.13808 19.6548L0.126918 19.4753L0.117592 19.2957L0.110103 19.1158L0.10445 18.9359L0.100642 18.7557L0.0986887 18.5755L0.0985718 18.3952ZM17.5421 5.19127L17.5011 1.72544L17.4621 1.7292L17.2832 1.74825L17.1047 1.76902L16.9262 1.79156L16.7485 1.81578L16.571 1.84175L16.3937 1.86947L16.2169 1.89889L16.0403 1.93006L15.8646 1.96285L15.6886 1.99748L15.5139 2.03367L15.3389 2.07168L15.1648 2.11131L14.9909 2.1527L14.8178 2.19567L14.6451 2.24038L14.4729 2.28674L14.3013 2.33479L14.1304 2.38444L13.9598 2.4358L13.7901 2.48876L13.6209 2.5434L13.4526 2.59955L13.2845 2.65748L13.1174 2.71695L12.951 2.778L12.7851 2.84072L12.6201 2.90496L12.456 2.97076L12.2923 3.03824L12.1295 3.10726L11.9675 3.17785L11.8063 3.24993L11.646 3.32357L11.4866 3.3987L11.3277 3.47548L11.17 3.55367L11.0131 3.63338L10.8571 3.71459L10.702 3.79731L10.548 3.88144L10.3946 3.96713L10.2422 4.0543L10.0912 4.14271L9.94057 4.23286L9.79141 4.3242L9.64324 4.41696L9.4958 4.51124L9.34952 4.6069L9.20432 4.70396L9.06047 4.80216L8.91717 4.9021L8.7753 5.0031L8.63451 5.10551L8.49472 5.20931L8.35618 5.31435L8.21891 5.42066L8.08244 5.52845L7.94751 5.63727L7.81356 5.74753L7.68087 5.85897L7.54936 5.97172L7.4192 6.08555L7.29 6.20081L7.16229 6.31711L7.03566 6.43474L6.9105 6.55337L6.78648 6.67328L6.66385 6.79427L6.54246 6.91646L6.42225 7.03991L6.30362 7.1642L6.18632 7.28957L6.07006 7.4164L5.95541 7.54405L5.84217 7.67259L5.73009 7.80248L5.61964 7.93319L5.51041 8.06506L5.40266 8.19784L5.29631 8.33169L5.19135 8.46645L5.08794 8.60211L4.98588 8.73875L4.88522 8.87648L4.78618 9.01483L4.68847 9.15436L4.59231 9.29461L4.49764 9.43575L4.4044 9.5778L4.31272 9.72066L4.22255 9.86423L4.13389 10.0087L4.04682 10.1539L3.96118 10.3L3.87708 10.4469L3.79463 10.5944L3.71366 10.7426L3.63424 10.8917L3.55643 11.0414L3.48015 11.1918L3.4055 11.3428L3.33242 11.4944L3.26095 11.6467L3.19103 11.7998L3.12277 11.9533L3.05606 12.1075L2.99098 12.2622L2.92756 12.4174L2.86573 12.5732L2.80552 12.7296L2.74696 12.8864L2.69002 13.0437L2.63477 13.2014L2.58111 13.3598L2.52912 13.5185L2.47879 13.6776L2.43013 13.837L2.38308 13.9971L2.33774 14.1573L2.29406 14.318L2.25203 14.4789L2.21167 14.6403L2.173 14.8019L2.13601 14.9639L2.10068 15.1261L2.06704 15.2886L2.03509 15.4512L2.00481 15.6142L1.97622 15.7773L1.94931 15.9406L1.9241 16.1041L1.90057 16.2678L1.87873 16.4316L1.85857 16.5955L1.84011 16.7595L1.82334 16.9237L1.80826 17.0879L1.79487 17.2521L1.78317 17.4165L1.77316 17.5808L1.76483 17.7451L1.7582 17.9095L1.75324 18.0738L1.74999 18.2381L1.7484 18.4022L1.74851 18.5664L1.75029 18.7304L1.75376 18.8945L1.7589 19.0583L1.76571 19.2219L1.77421 19.3855L1.78436 19.5488L1.79619 19.712L1.80968 19.8749L1.82484 20.0377L1.84165 20.2002L1.86012 20.3625L1.88024 20.5245L1.90201 20.6862L1.92542 20.8476L1.95048 21.0087L1.97716 21.1694L2.00549 21.3298L2.03544 21.4898L2.06701 21.6494L2.1002 21.8088L2.135 21.9675L2.17141 22.126L2.20942 22.284L2.24903 22.4415L2.29024 22.5986L2.33302 22.755L2.37739 22.9111L2.42334 23.0667L2.47085 23.2217L2.51993 23.3761L2.57054 23.53L2.62272 23.6833L2.67644 23.8359L2.73169 23.9881L2.78846 24.1395L2.84678 24.2903L2.90658 24.4405L2.96789 24.59L3.03071 24.7388L3.09501 24.8869L3.1608 25.0343L3.22806 25.1811L3.29679 25.327L3.36697 25.4722L3.4386 25.6166L3.51167 25.7602L3.58618 25.9031L3.6621 26.0451L3.73944 26.1864L3.81818 26.3267L3.89831 26.4662L3.97983 26.6049L4.06274 26.7427L4.14696 26.8796L4.23261 27.0156L4.31955 27.1506L4.40786 27.2848L4.49749 27.4181L4.58842 27.5503L4.68065 27.6816L4.7742 27.812L4.86901 27.9413L4.96512 28.0697L5.06245 28.197L5.16108 28.3233L5.26089 28.4485L5.36196 28.5727L5.46427 28.6959L5.56773 28.818L5.67242 28.939L5.77827 29.0589L5.88533 29.1777L5.99351 29.2954L6.10282 29.4119L6.21328 29.5273L6.32486 29.6417L6.43758 29.7548L6.55136 29.8667L6.66626 29.9775L6.78218 30.0871L6.89918 30.1955L7.01725 30.3027L7.13634 30.4087L7.25637 30.5134L7.37752 30.6169L7.49967 30.7192L7.62263 30.8202L7.74677 30.92L7.87171 31.0184L7.99764 31.1156L8.12448 31.2116L8.2523 31.3062L8.38094 31.3994L8.51047 31.4914L8.64082 31.5821L8.77215 31.6715L8.9042 31.7594L9.03725 31.8461L9.17092 31.9314L9.3055 32.0153L9.44089 32.098L9.5769 32.1791L9.71382 32.259L9.85136 32.3374L9.98972 32.4145L10.1287 32.4901L10.2685 32.5643L10.4088 32.6372L10.5499 32.7086L10.6917 32.7786L10.8341 32.8472L10.977 32.9143L11.1206 32.98L11.2647 33.0442L11.4096 33.107L11.5548 33.1684L11.7008 33.2283L11.8471 33.2867L11.994 33.3436L12.1415 33.3992L12.2893 33.4532L12.4376 33.5056L12.5865 33.5567L12.7358 33.6063L12.8855 33.6544L13.0354 33.7009L13.186 33.746L13.3368 33.7896L13.488 33.8316L13.6396 33.8722L13.7915 33.9113L13.9437 33.9488L14.0961 33.9848L14.249 34.0194L14.402 34.0523L14.5552 34.0838L14.7088 34.1138L14.8625 34.1422L15.0164 34.1692L15.1706 34.1945L15.3248 34.2184L15.4793 34.2407L15.634 34.2615L15.7886 34.2809L15.9434 34.2986L16.0984 34.3148L16.2534 34.3296L16.4085 34.3427L16.5636 34.3544L16.7187 34.3645L16.8738 34.3731L17.0289 34.3802L17.184 34.3857L17.3391 34.3898L17.4942 34.3922L17.6492 34.3932L17.8041 34.3927L17.9589 34.3906L18.1136 34.3871L18.2681 34.382L18.4226 34.3754L18.5769 34.3673L18.7309 34.3577L18.8848 34.3466L19.0386 34.334L19.1921 34.3198L19.3453 34.3042L19.4983 34.2871L19.651 34.2685L19.8034 34.2485L19.9556 34.2269L20.1074 34.2038L20.2589 34.1793L20.4102 34.1533L20.561 34.1259L20.7115 34.097L20.8615 34.0666L21.0112 34.0348L21.1605 34.0015L21.3093 33.9668L21.4577 33.9306L21.6056 33.8931L21.753 33.854L21.8999 33.8136L22.0465 33.7717L22.1924 33.7284L22.3379 33.6838L22.4827 33.6378L22.6271 33.5903L22.7709 33.5415L22.9139 33.4912L23.0566 33.4396L23.1985 33.3866L23.3399 33.3323L23.4806 33.2766L23.6205 33.2197L23.7599 33.1612L23.8986 33.1016L24.0366 33.0405L24.1738 32.9782L24.3104 32.9146L24.4463 32.8496L24.5813 32.7834L24.7157 32.7158L24.8492 32.6471L24.9819 32.577L25.114 32.5056L25.2451 32.4331L25.3754 32.3593L25.5049 32.2843L25.6337 32.208L25.7613 32.1305L25.8884 32.0518L26.0143 31.9719L26.1395 31.8908L26.2638 31.8086L26.3872 31.725L26.5094 31.6406L26.6309 31.5548L26.7514 31.4679L26.8709 31.38L26.9896 31.2908L27.1071 31.2007L27.2238 31.1092L27.3393 31.0169L27.4538 30.9234L27.5675 30.8288L27.68 30.7331L27.7914 30.6365L27.9018 30.5388L28.0111 30.4401L28.1194 30.3404L28.2266 30.2396L28.3326 30.138L28.4376 30.0352L28.5415 29.9315L28.6442 29.8269L28.7458 29.7213L28.8462 29.6149L28.9454 29.5076L29.0437 29.3991L29.1405 29.29L29.2364 29.1798L29.3309 29.0689L29.4244 28.957L29.5165 28.8444L29.6075 28.7309L29.6973 28.6165L29.7858 28.5014L29.8732 28.3854L29.9592 28.2687L30.044 28.1512L30.1278 28.0328L30.2099 27.914L30.291 27.7942L30.3706 27.6738L30.4491 27.5526L30.5264 27.4306L30.6022 27.3082L30.6768 27.185L30.7501 27.0609L30.822 26.9366L30.8926 26.8114L30.962 26.6855L31.0299 26.5593L31.0966 26.4322L31.162 26.3046L31.2258 26.1768L31.2884 26.048L31.3497 25.9187L31.4096 25.7891L31.4681 25.659L31.5253 25.5283L31.581 25.3972L31.6355 25.2654L31.6885 25.1333L31.7401 25.001L31.7903 24.8678L31.8391 24.7346L31.8866 24.6007L31.9327 24.4666L31.9773 24.332L32.0205 24.1974L32.0624 24.0619L32.1027 23.9265L32.1417 23.7907L32.1793 23.6546L32.2155 23.5181L32.2502 23.3815L32.2836 23.2445L32.3154 23.1073L32.346 22.9699L32.375 22.8322L32.4026 22.6945L32.4288 22.5563L32.4535 22.4184L32.4768 22.2799L32.4987 22.1414L32.5191 22.0028L32.5382 21.864L32.5558 21.7254L32.572 21.5861L32.5867 21.4474L32.6 21.3083L32.6118 21.1694L32.6222 21.03L32.6312 20.8912L32.6388 20.752L32.6449 20.6126L32.6496 20.4736L32.6529 20.3349L32.6547 20.1957L32.6552 20.0567L32.6542 19.9179L32.6517 19.7791L32.6479 19.6404L32.6426 19.5023L32.6359 19.3635L32.6278 19.2254L32.6183 19.0874L32.6074 18.9497L32.595 18.8118L32.5813 18.6745L32.5662 18.5372L32.5497 18.4003L32.5317 18.2634L32.5125 18.1271L32.4917 17.9906L32.4696 17.8548L32.4462 17.7194L32.4214 17.5839L32.3951 17.4489L32.3676 17.3144L32.3386 17.1798L32.3084 17.0462L32.2766 16.9125L32.2438 16.7796L32.2093 16.6466L32.1737 16.5145L32.1367 16.3826L32.0983 16.251L32.0587 16.1202L32.0178 15.9899L31.9754 15.8596L31.9319 15.7304L31.8869 15.6012L31.8408 15.4728L31.7933 15.3447L31.7446 15.2175L31.6944 15.0905L31.6431 14.9642L31.5906 14.8387L31.5369 14.7138L31.4816 14.589L31.4255 14.4654L31.3678 14.3419L31.3091 14.2196L31.2492 14.0977L31.1879 13.9763L31.1256 13.8559L31.062 13.7359L30.9971 13.6166L30.9313 13.4984L30.8641 13.3805L30.7959 13.2635L30.7263 13.1471L30.6559 13.0319L30.584 12.917L30.5112 12.8031L30.4371 12.6898L30.3621 12.5774L30.286 12.4661L30.2086 12.3552L30.1302 12.2453L30.0508 12.1362L29.9702 12.0281L29.8887 11.9206L29.806 11.8142L29.7224 11.7085L29.6377 11.6038L29.552 11.5L29.4652 11.397L29.3775 11.2951L29.2888 11.194L29.1992 11.0939L29.1086 10.9947L29.0168 10.8963L28.9245 10.7992L28.8307 10.7027L28.7365 10.6076L28.6411 10.5132L28.545 10.4199L28.4476 10.3274L28.3498 10.2363L28.2508 10.1459L28.151 10.0566L28.0506 9.96847L27.9493 9.88134L27.8467 9.79501L27.7437 9.70994L27.6399 9.62596L27.5352 9.54305L27.4297 9.46114L27.3236 9.38057L27.2164 9.30064L27.1089 9.22223L27.0004 9.14482L26.8911 9.06839L26.7814 8.99323L26.6705 8.91896L26.5596 8.84623L26.4474 8.77431L26.3349 8.70364L26.2215 8.63406L26.1076 8.56565L25.9931 8.4985L25.8781 8.4326L25.7621 8.36752L25.6461 8.30397L25.5291 8.24141L25.4116 8.18011L25.2937 8.12006L25.175 8.0611L25.0559 8.00331L24.9364 7.94687L24.8162 7.89151L24.6958 7.8375L24.5747 7.78457L24.4493 7.73128L24.3314 7.68258L24.2087 7.63325L24.0862 7.58545L23.9627 7.53856L23.8392 7.49319L23.7151 7.4489L23.5908 7.40596L23.466 7.3641L23.341 7.32368L23.2155 7.28444L23.0898 7.24645L22.9639 7.20981L22.8376 7.17431L22.7107 7.14003L22.5841 7.10715L22.4571 7.07552L22.3294 7.04505L22.2021 7.01598L22.0742 6.98808L21.9463 6.96152L21.8179 6.93617L21.6898 6.91215L21.5612 6.88938L21.4328 6.86793L21.3037 6.84768L21.1749 6.82876L21.046 6.8111L20.9168 6.79471L20.7876 6.7796L20.6584 6.7658L20.5292 6.75325L20.3998 6.74198L20.2704 6.73198L20.1408 6.72325L20.0117 6.71581L19.8824 6.70964L19.7527 6.70474L19.6237 6.70112L19.4944 6.69876L19.3652 6.69768L19.2359 6.69786L19.21 6.69816L19.2507 10.1388L19.3241 10.1384L19.4185 10.139L19.513 10.1404L19.6075 10.1428L19.7021 10.1462L19.7967 10.1505L19.8913 10.1557L19.986 10.1618L20.0807 10.1689L20.1754 10.177L20.2701 10.186L20.3647 10.1959L20.4594 10.2067L20.554 10.2185L20.6485 10.2312L20.743 10.245L20.8375 10.2596L20.9318 10.2752L21.0261 10.2917L21.1203 10.3092L21.2144 10.3276L21.3084 10.347L21.4022 10.3672L21.4959 10.3885L21.5895 10.4107L21.6829 10.4339L21.7761 10.4579L21.8692 10.4829L21.9621 10.5088L22.0548 10.5358L22.1473 10.5636L22.2396 10.5923L22.3316 10.622L22.4234 10.6526L22.515 10.6842L22.6063 10.7167L22.6974 10.7501L22.7881 10.7844L22.8787 10.8197L22.9689 10.8559L23.0588 10.8929L23.1484 10.931L23.2377 10.9699L23.3266 11.0098L23.4152 11.0505L23.5034 11.0922L23.5914 11.1347L23.6789 11.1782L23.766 11.2226L23.8528 11.2679L23.9391 11.314L24.0251 11.361L24.1106 11.4089L24.1956 11.4577L24.2803 11.5074L24.3646 11.558L24.4483 11.6094L24.5316 11.6617L24.6144 11.7149L24.6968 11.7689L24.7786 11.8237L24.86 11.8794L24.9408 11.9361L25.0211 11.9934L25.1009 12.0516L25.1801 12.1108L25.2588 12.1706L25.3369 12.2314L25.4145 12.293L25.4914 12.3553L25.5679 12.4185L25.6437 12.4825L25.7189 12.5472L25.7935 12.6127L25.8675 12.6791L25.9409 12.7462L26.0135 12.8141L26.0856 12.8828L26.157 12.9522L26.2278 13.0224L26.2979 13.0933L26.3673 13.1651L26.4361 13.2374L26.504 13.3106L26.5714 13.3845L26.638 13.4591L26.7039 13.5344L26.769 13.6105L26.8335 13.6872L26.8972 13.7646L26.9602 13.8427L27.0224 13.9215L27.0837 14.001L27.1444 14.0811L27.2043 14.1619L27.2633 14.2433L27.3217 14.3254L27.3791 14.4081L27.4358 14.4915L27.4916 14.5754L27.5466 14.66L27.6008 14.7452L27.6542 14.831L27.7068 14.9173L27.7584 15.0043L27.8092 15.0919L27.8591 15.1799L27.9082 15.2686L27.9564 15.3578L28.0037 15.4475L28.0502 15.5378L28.0956 15.6286L28.1403 15.72L28.184 15.8118L28.2268 15.9041L28.2686 15.997L28.3096 16.0903L28.3497 16.184L28.3887 16.2783L28.4269 16.373L28.4641 16.4681L28.5003 16.5637L28.5355 16.6597L28.5698 16.7561L28.6032 16.853L28.6356 16.9502L28.667 17.0478L28.6974 17.1458L28.7268 17.2442L28.7553 17.3429L28.7827 17.442L28.8091 17.5415L28.8346 17.6412L28.859 17.7413L28.8824 17.8417L28.9048 17.9424L28.9261 18.0434L28.9465 18.1447L28.9657 18.2462L28.984 18.3481L29.0013 18.4502L29.0175 18.5525L29.0326 18.6551L29.0467 18.7578L29.0598 18.8608L29.0719 18.964L29.0828 19.0675L29.0927 19.171L29.1016 19.2748L29.1093 19.3787L29.1161 19.4827L29.1216 19.5869L29.1262 19.6912L29.1297 19.7957L29.1322 19.9002L29.1335 20.0049L29.1338 20.1097L29.133 20.2145L29.1311 20.3193L29.1281 20.4243L29.1241 20.5293L29.1189 20.6343L29.1127 20.7394L29.1054 20.8445L29.0971 20.9495L29.0875 21.0546L29.077 21.1596L29.0653 21.2646L29.0526 21.3697L29.0387 21.4745L29.0238 21.5794L29.0078 21.6842L28.9907 21.7889L28.9725 21.8935L28.9531 21.998L28.9328 22.1024L28.9113 22.2066L28.8887 22.3108L28.8651 22.4147L28.8403 22.5185L28.8145 22.6221L28.7876 22.7257L28.7596 22.8289L28.7305 22.932L28.7004 23.0348L28.6691 23.1374L28.6368 23.2398L28.6033 23.342L28.5688 23.4438L28.5333 23.5455L28.4967 23.6468L28.459 23.7478L28.4202 23.8485L28.3804 23.949L28.3396 24.0491L28.2976 24.1489L28.2546 24.2483L28.2106 24.3474L28.1655 24.4462L28.1193 24.5445L28.0721 24.6424L28.0239 24.74L27.9746 24.8371L27.9242 24.9339L27.8729 25.0301L27.8205 25.126L27.7672 25.2214L27.7128 25.3164L27.6573 25.4108L27.6009 25.5048L27.5435 25.5983L27.485 25.6914L27.4255 25.7838L27.3651 25.8758L27.3037 25.9672L27.2413 26.0581L27.1779 26.1485L27.1135 26.2382L27.0482 26.3274L26.9819 26.4161L26.9147 26.5041L26.8465 26.5915L26.7773 26.6783L26.7072 26.7645L26.6362 26.8501L26.5643 26.935L26.4913 27.0193L26.4175 27.1029L26.3428 27.1858L26.2672 27.2681L26.1907 27.3497L26.1134 27.4306L26.035 27.5107L25.9559 27.5902L25.8758 27.6689L25.795 27.7469L25.7131 27.8241L25.6306 27.9006L25.5472 27.9764L25.4628 28.0512L25.3777 28.1254L25.2918 28.1989L25.2051 28.2714L25.1175 28.3433L25.0292 28.4142L24.94 28.4843L24.8501 28.5536L24.7594 28.6221L24.668 28.6897L24.5757 28.7565L24.4828 28.8225L24.3891 28.8875L24.2947 28.9517L24.1994 29.015L24.1036 29.0774L24.007 29.1388L23.9098 29.1994L23.8117 29.259L23.7132 29.3178L23.6138 29.3756L23.5139 29.4324L23.4132 29.4883L23.3119 29.5433L23.2101 29.5973L23.1075 29.6503L23.0044 29.7023L22.9007 29.7534L22.7963 29.8035L22.6914 29.8526L22.5859 29.9006L22.4798 29.9477L22.3733 29.9938L22.266 30.0388L22.1584 30.0828L22.0502 30.1259L21.9414 30.1678L21.8323 30.2088L21.7225 30.2486L21.6123 30.2874L21.5016 30.3252L21.3905 30.3619L21.2789 30.3974L21.1669 30.432L21.0545 30.4655L20.9416 30.4978L20.8284 30.5291L20.7147 30.5593L20.6006 30.5884L20.4862 30.6164L20.3715 30.6433L20.2562 30.669L20.1408 30.6937L20.025 30.7172L19.9089 30.7396L19.7925 30.7609L19.6757 30.7811L19.5587 30.8001L19.4415 30.8179L19.3239 30.8347L19.2061 30.8502L19.0881 30.8647L18.9699 30.878L18.8514 30.8901L18.7328 30.9011L18.614 30.9109L18.495 30.9195L18.3758 30.927L18.2564 30.9333L18.137 30.9384L18.0173 30.9424L17.8976 30.9452L17.7778 30.9468L17.6578 30.9473L17.5378 30.9466L17.4178 30.9446L17.2977 30.9415L17.1775 30.9372L17.0573 30.9317L16.937 30.925L16.8169 30.9172L16.6966 30.9082L16.5764 30.8979L16.4563 30.8865L16.3361 30.8739L16.216 30.8601L16.096 30.8452L15.976 30.829L15.8562 30.8116L15.7365 30.7931L15.6169 30.7734L15.4973 30.7524L15.3779 30.7303L15.2588 30.707L15.1398 30.6824L15.0209 30.6568L14.9022 30.63L14.7837 30.6019L14.6655 30.5726L14.5475 30.5422L14.4296 30.5106L14.3121 30.4778L14.1949 30.4439L14.0778 30.4088L13.9611 30.3725L13.8447 30.335L13.7287 30.2964L13.6128 30.2566L13.4974 30.2156L13.3824 30.1735L13.2676 30.1302L13.1533 30.0857L13.0393 30.0402L12.9257 29.9934L12.8126 29.9455L12.6999 29.8965L12.5876 29.8463L12.4757 29.795L12.3644 29.7426L12.2535 29.689L12.143 29.6343L12.033 29.5785L11.9236 29.5216L11.8147 29.4635L11.7063 29.4044L11.5985 29.3442L11.4912 29.2828L11.3844 29.2204L11.2783 29.1568L11.1727 29.0922L11.0678 29.0266L10.9634 28.9598L10.8597 28.892L10.7567 28.8231L10.6542 28.7531L10.5524 28.6822L10.4513 28.6102L10.3509 28.5371L10.2511 28.463L10.152 28.3878L10.0537 28.3117L9.95614 28.2345L9.85928 28.1563L9.76315 28.0772L9.66773 27.997L9.57312 27.9159L9.47932 27.8337L9.38625 27.7506L9.29398 27.6665L9.20261 27.5815L9.11196 27.4956L9.02213 27.4086L8.93319 27.3208L8.84515 27.232L8.75793 27.1423L8.67151 27.0517L8.586 26.9602L8.50147 26.8678L8.41775 26.7744L8.33494 26.6803L8.25311 26.5852L8.1721 26.4894L8.09216 26.3926L8.01304 26.2949L7.93499 26.1965L7.85785 26.0972L7.78169 25.9972L7.70653 25.8962L7.63227 25.7946L7.55908 25.6921L7.48698 25.5888L7.41578 25.4848L7.34565 25.38L7.27657 25.2745L7.20853 25.1682L7.14153 25.0612L7.0756 24.9534L7.01073 24.8449L6.94695 24.7358L6.88424 24.6259L6.82263 24.5155L6.76212 24.4042L6.70272 24.2924L6.64442 24.1799L6.58725 24.0667L6.53122 23.953L6.47631 23.8385L6.42256 23.7236L6.36995 23.6079L6.3185 23.4918L6.26821 23.375L6.2191 23.2577L6.17116 23.1398L6.12441 23.0215L6.07884 22.9025L6.03447 22.783L5.9913 22.6631L5.94935 22.5426L5.9086 22.4217L5.86908 22.3002L5.83078 22.1784L5.79371 22.0561L5.75787 21.9333L5.72328 21.8102L5.68993 21.6866L5.65784 21.5626L5.627 21.4382L5.59741 21.3135L5.5691 21.1884L5.54205 21.0629L5.51627 20.9371L5.49178 20.811L5.46857 20.6845L5.44664 20.5578L5.42601 20.4308L5.40666 20.3035L5.38861 20.1759L5.37187 20.0481L5.35643 19.92L5.3423 19.7917L5.32947 19.6633L5.31796 19.5346L5.30777 19.4057L5.29889 19.2767L5.29133 19.1474L5.2851 19.018L5.2802 18.8886L5.27662 18.759L5.27437 18.6293L5.27345 18.4994L5.27388 18.3695L5.27562 18.2395L5.27872 18.1095L5.28314 17.9794L5.28891 17.8493L5.29602 17.7192L5.30446 17.589L5.31426 17.459L5.32538 17.3288L5.33786 17.1988L5.35169 17.0687L5.36685 16.9388L5.38336 16.8089L5.40121 16.6791L5.4204 16.5494L5.44094 16.4199L5.46281 16.2904L5.48604 16.1612L5.5106 16.032L5.53651 15.903L5.56375 15.7743L5.59234 15.6457L5.62226 15.5173L5.65351 15.3891L5.6861 15.2612L5.72003 15.1336L5.75528 15.0061L5.79186 14.879L5.82978 14.7522L5.86901 14.6256L5.90957 14.4993L5.95144 14.3734L5.99463 14.2479L6.03915 14.1227L6.08497 13.9978L6.13209 13.8733L6.18052 13.7493L6.23025 13.6256L6.28128 13.5024L6.33361 13.3796L6.38722 13.2571L6.44213 13.1353L6.49831 13.0138L6.55578 12.8929L6.61452 12.7724L6.67453 12.6525L6.73581 12.5331L6.79834 12.4142L6.86213 12.2959L6.92717 12.1781L6.99346 12.0609L7.06098 11.9443L7.12975 11.8283L7.19974 11.7129L7.27096 11.5981L7.3434 11.484L7.41704 11.3705L7.49193 11.2577L7.5679 11.1455L7.64523 11.0341L7.72363 10.9233L7.80321 10.8132L7.88404 10.7039L7.96596 10.5953L8.04913 10.4874L8.13339 10.3803L8.21882 10.274L8.30532 10.1685L8.393 10.0637L8.48184 9.95974L8.57177 9.85658L8.66278 9.75432L8.75496 9.65287L8.84812 9.55223L8.94246 9.45249L9.03788 9.35357L9.13429 9.25563L9.23178 9.1585L9.33034 9.06227L9.42999 8.96703L9.53063 8.87261L9.63226 8.77926L9.73497 8.68672L9.83867 8.59526L9.94327 8.50471L10.0489 8.41514L10.1556 8.32656L10.2632 8.23898L10.3717 8.15238L10.4813 8.06686L10.5918 7.98234L10.7031 7.89889L10.8154 7.81644L10.9286 7.73506L11.0426 7.65477L11.1577 7.57555L11.2735 7.49742L11.3902 7.42045L11.5079 7.34448L11.6262 7.26968L11.7455 7.19599L11.8656 7.12342L11.9865 7.05201L12.1081 6.98174L12.2306 6.91262L12.3538 6.84467L12.4778 6.7779L12.6025 6.71232L12.728 6.64792L12.8542 6.58472L12.9812 6.52272L13.1088 6.46194L13.2372 6.40239L13.3662 6.34406L13.4959 6.28696L13.6262 6.23111L13.7572 6.17652L13.8888 6.12317L14.0209 6.0711L14.1538 6.02029L14.2872 5.97077L14.4213 5.92253L14.5558 5.87557L14.6909 5.82992L14.8266 5.78557L14.9627 5.74253L15.0994 5.7008L15.2366 5.66039L15.3743 5.62131L15.5124 5.58356L15.6511 5.54715L15.7901 5.51208L15.9297 5.47836L16.0696 5.446L16.2099 5.41498L16.3506 5.38532L16.4916 5.35704L16.6331 5.33013L16.7749 5.3046L16.9171 5.28044L17.0596 5.25766L17.2023 5.23627L17.3454 5.21628L17.4887 5.19767L17.5421 5.19127ZM17.6026 10.2944L17.5614 6.81598L17.4439 6.8324L17.3176 6.85133L17.1912 6.87152L17.0657 6.89286L16.9399 6.91551L16.8148 6.93932L16.6899 6.96436L16.5655 6.99056L16.4414 7.01801L16.3175 7.04667L16.194 7.07651L16.0711 7.10753L15.9482 7.13979L15.8302 7.17201L15.7044 7.20774L15.583 7.24348L15.4621 7.28039L15.3419 7.31837L15.2219 7.35762L15.1023 7.39804L14.9833 7.43954L14.8649 7.48211L14.747 7.52595L14.6296 7.57078L14.5127 7.61687L14.3967 7.66395L14.2806 7.71229L14.1655 7.76162L14.0509 7.81203L13.9371 7.86352L13.8236 7.91618L13.7107 7.96992L13.5989 8.02456L13.4871 8.08046L13.3766 8.13726L13.2662 8.19532L13.157 8.2541L13.0479 8.31432L12.9398 8.37517L12.8325 8.43719L12.7258 8.5003L12.6198 8.5643L12.5144 8.62947L12.4101 8.69536L12.3062 8.76242L12.2033 8.83039L12.1012 8.89925L11.9997 8.96919L11.8989 9.04013L11.7992 9.11169L11.7001 9.18451L11.6018 9.25815L11.5044 9.33268L11.4079 9.40803L11.3121 9.48445L11.2173 9.56159L11.1233 9.63964L11.03 9.71877L10.938 9.79843L10.8465 9.87918L10.7559 9.96073L10.6664 10.043L10.5778 10.1261L10.4899 10.2102L10.4032 10.2948L10.3173 10.3803L10.2322 10.4667L10.1482 10.5538L10.0652 10.6417L9.98306 10.7303L9.90195 10.8196L9.82175 10.9097L9.74244 11.0006L9.66449 11.092L9.58725 11.1842L9.51101 11.2772L9.43584 11.3708L9.36176 11.4649L9.28849 11.56L9.21638 11.6555L9.14527 11.7517L9.07524 11.8486L9.00619 11.9461L8.93832 12.044L8.87144 12.1426L8.80555 12.2419L8.74073 12.3418L8.67709 12.442L8.61453 12.543L8.55296 12.6446L8.49247 12.7465L8.43315 12.849L8.37482 12.9521L8.31774 13.0554L8.26166 13.1595L8.20657 13.2641L8.15283 13.3689L8.10008 13.4744L8.0485 13.5802L7.998 13.6864L7.94868 13.7931L7.90043 13.9001L7.85335 14.0076L7.80735 14.1155L7.76261 14.2237L7.71895 14.3322L7.67637 14.4412L7.63497 14.5505L7.59482 14.6601L7.55566 14.7701L7.51785 14.8802L7.48104 14.9907L7.44548 15.1015L7.411 15.2126L7.37779 15.3238L7.34565 15.4354L7.31478 15.5471L7.28499 15.6592L7.2564 15.7713L7.22899 15.8838L7.20276 15.9964L7.17769 16.1091L7.15379 16.222L7.1311 16.3351L7.10956 16.4482L7.08919 16.5617L7.07003 16.6751L7.05202 16.7887L7.03521 16.9022L7.01956 17.016L7.0051 17.1298L6.99181 17.2436L6.97971 17.3575L6.96878 17.4715L6.95903 17.5854L6.95046 17.6993L6.94306 17.8134L6.93683 17.9273L6.93178 18.0412L6.92791 18.1551L6.9252 18.2688L6.92367 18.3826L6.9233 18.4964L6.9241 18.61L6.92607 18.7235L6.92921 18.8369L6.93349 18.9502L6.93895 19.0634L6.94555 19.1765L6.95331 19.2893L6.96223 19.4021L6.9723 19.5146L6.98351 19.6269L6.99587 19.7391L7.00937 19.8511L7.02401 19.9629L7.03978 20.0743L7.0567 20.1857L7.07473 20.2966L7.09389 20.4074L7.11418 20.5179L7.13558 20.628L7.1581 20.738L7.18172 20.8476L7.20647 20.9569L7.23228 21.0658L7.25924 21.1744L7.28727 21.2827L7.3164 21.3906L7.34655 21.4981L7.37788 21.6053L7.41019 21.7121L7.44368 21.8185L7.47816 21.9245L7.51371 22.03L7.55035 22.1351L7.58798 22.2398L7.62668 22.344L7.66647 22.4478L7.70725 22.551L7.74902 22.6538L7.79187 22.7562L7.8357 22.858L7.88062 22.9593L7.92644 23.0601L7.97334 23.1603L8.02123 23.26L8.07002 23.3592L8.11989 23.4578L8.17066 23.5559L8.22242 23.6534L8.27517 23.7502L8.32882 23.8466L8.38346 23.9422L8.439 24.0373L8.49553 24.1317L8.55296 24.2256L8.61129 24.3188L8.67052 24.4113L8.73074 24.5033L8.79168 24.5944L8.85371 24.6851L8.91645 24.7749L8.98018 24.8641L9.04472 24.9526L9.11016 25.0404L9.17642 25.1274L9.24357 25.2138L9.31144 25.2994L9.38021 25.3843L9.4498 25.4685L9.52019 25.5519L9.59139 25.6345L9.66341 25.7165L9.73614 25.7975L9.80968 25.8779L9.88395 25.9574L9.95902 26.0361L10.0348 26.1141L10.1114 26.1912L10.1887 26.2676L10.2667 26.3431L10.3455 26.4178L10.4248 26.4916L10.505 26.5647L10.5857 26.6368L10.6672 26.7081L10.7494 26.7786L10.8322 26.8482L10.9156 26.9169L10.9997 26.9847L11.0844 27.0517L11.1697 27.1178L11.2557 27.183L11.3423 27.2473L11.4294 27.3107L11.517 27.3731L11.6053 27.4347L11.6942 27.4954L11.7837 27.5552L11.8736 27.6139L11.9641 27.6718L12.0551 27.7288L12.1465 27.7848L12.2385 27.8399L12.3311 27.894L12.424 27.9471L12.5175 27.9993L12.6113 28.0505L12.7057 28.1008L12.8005 28.1502L12.8956 28.1984L12.9913 28.2459L13.0875 28.2922L13.1839 28.3377L13.2806 28.3821L13.378 28.4255L13.4754 28.4679L13.5734 28.5093L13.6717 28.5498L13.7703 28.5893L13.8692 28.6277L13.9685 28.6652L14.068 28.7016L14.1679 28.7371L14.268 28.7715L14.3684 28.805L14.469 28.8373L14.57 28.8687L14.6711 28.899L14.7725 28.9284L14.874 28.9567L14.9758 28.984L15.0778 29.0104L15.18 29.0356L15.2824 29.0598L15.3849 29.083L15.4876 29.1053L15.5904 29.1264L15.6933 29.1465L15.7964 29.1656L15.8995 29.1837L16.0028 29.2008L16.1062 29.2167L16.2096 29.2317L16.3131 29.2457L16.4167 29.2586L16.5203 29.2705L16.6239 29.2814L16.7276 29.2912L16.8313 29.3001L16.935 29.3078L17.0387 29.3146L17.1423 29.3203L17.2459 29.3251L17.3496 29.3288L17.4531 29.3315L17.5565 29.3331L17.66 29.3337L17.7633 29.3334L17.8666 29.3319L17.9697 29.3296L18.0727 29.3262L18.1757 29.3217L18.2784 29.3163L18.381 29.3099L18.4834 29.3024L18.5858 29.2939L18.6879 29.2845L18.7899 29.274L18.8917 29.2626L18.9932 29.2502L19.0946 29.2368L19.1957 29.2225L19.2966 29.2071L19.3972 29.1907L19.4975 29.1734L19.5977 29.155L19.6975 29.1358L19.7971 29.1156L19.8964 29.0944L19.9953 29.0722L20.0939 29.0492L20.1922 29.025L20.2903 29.0001L20.3879 28.9742L20.4852 28.9473L20.5822 28.9195L20.6788 28.8907L20.7749 28.8611L20.8707 28.8305L20.9662 28.799L21.0612 28.7666L21.1558 28.7333L21.2499 28.6991L21.3436 28.664L21.4369 28.628L21.5297 28.5911L21.6222 28.5533L21.7141 28.5147L21.8054 28.4751L21.8964 28.4348L21.9868 28.3936L22.0768 28.3515L22.1663 28.3085L22.2551 28.2649L22.3436 28.2201L22.4314 28.1748L22.5188 28.1284L22.6054 28.0814L22.6916 28.0335L22.7773 27.9848L22.8623 27.9353L22.9468 27.885L23.0307 27.8339L23.1139 27.7821L23.1967 27.7294L23.2786 27.6761L23.3601 27.622L23.441 27.567L23.5211 27.5113L23.6005 27.4551L23.6796 27.3978L23.7577 27.3401L23.8353 27.2815L23.9123 27.2222L23.9882 27.1623L24.0639 27.1016L24.1388 27.0402L24.2127 26.9782L24.2864 26.9153L24.359 26.852L24.4309 26.7881L24.5024 26.7232L24.5728 26.6581L24.6427 26.5921L24.7118 26.5255L24.78 26.4583L24.8476 26.3904L24.9145 26.322L24.9806 26.253L25.0458 26.1834L25.1103 26.1132L25.1741 26.0424L25.237 25.9712L25.2993 25.8992L25.3606 25.8268L25.421 25.7539L25.4809 25.6803L25.5398 25.6065L25.5979 25.5319L25.6553 25.4569L25.7118 25.3813L25.7674 25.3053L25.8222 25.2289L25.8763 25.1518L25.9294 25.0745L25.9817 24.9966L26.0332 24.9182L26.0837 24.8396L26.1335 24.7604L26.1824 24.6807L26.2305 24.6008L26.2776 24.5204L26.324 24.4395L26.3693 24.3586L26.4139 24.2768L26.4576 24.195L26.5003 24.1128L26.5423 24.03L26.5832 23.9474L26.6234 23.8638L26.6625 23.7806L26.701 23.6964L26.7383 23.6124L26.7749 23.5277L26.8105 23.4431L26.8452 23.3581L26.879 23.2728L26.912 23.1872L26.9439 23.1016L26.9751 23.0154L27.0052 22.9292L27.0344 22.8428L27.0628 22.7561L27.0902 22.6691L27.1168 22.5821L27.1423 22.495L27.167 22.4075L27.1907 22.32L27.2136 22.2322L27.2354 22.1443L27.2564 22.0565L27.2765 21.9682L27.2956 21.88L27.3138 21.7917L27.331 21.7033L27.3474 21.6149L27.3628 21.526L27.3773 21.4375L27.3909 21.3488L27.4035 21.2599L27.4152 21.1713L27.426 21.0824L27.4359 20.9933L27.4448 20.9048L27.4529 20.8156L27.46 20.7268L27.4661 20.6381L27.4714 20.5491L27.4758 20.4604L27.4792 20.3717L27.4817 20.2828L27.4832 20.1944L27.484 20.1056L27.4837 20.0171L27.4826 19.9287L27.4805 19.8405L27.4776 19.7522L27.4737 19.6641L27.4689 19.5763L27.4633 19.4883L27.4567 19.4005L27.4493 19.3132L27.4409 19.2256L27.4317 19.1386L27.4215 19.0514L27.4105 18.9646L27.3986 18.8779L27.3858 18.7913L27.3722 18.7051L27.3577 18.6191L27.3423 18.5333L27.326 18.4478L27.3088 18.3622L27.2908 18.2772L27.272 18.1925L27.2523 18.1079L27.2316 18.0235L27.2103 17.9397L27.188 17.8558L27.1649 17.7725L27.141 17.6893L27.1162 17.6067L27.0907 17.5241L27.0642 17.4419L27.037 17.3603L27.009 17.2789L26.98 17.1976L26.9505 17.1171L26.92 17.0367L26.8888 16.9568L26.8567 16.8772L26.8239 16.7979L26.7903 16.7193L26.7558 16.6408L26.7207 16.5629L26.6848 16.4855L26.6481 16.4083L26.6105 16.3315L26.5725 16.2554L26.5334 16.1795L26.4938 16.1044L26.4534 16.0297L26.4121 15.955L26.3704 15.8813L26.3277 15.8079L26.2844 15.735L26.2403 15.6625L26.1957 15.5907L26.1502 15.5192L26.1042 15.4484L26.0574 15.3781L26.0099 15.3084L25.9617 15.239L25.9129 15.1703L25.8636 15.1022L25.8133 15.0344L25.7627 14.9675L25.7112 14.9009L25.6593 14.8351L25.6066 14.7697L25.5533 14.705L25.4994 14.6408L25.4449 14.5772L25.3899 14.5143L25.3341 14.4519L25.2779 14.3902L25.221 14.329L25.1638 14.2687L25.1056 14.2086L25.0472 14.1495L24.988 14.0907L24.9284 14.0328L24.8683 13.9756L24.8077 13.9189L24.7464 13.8628L24.6846 13.8075L24.6224 13.7529L24.5595 13.6987L24.4966 13.6456L24.4327 13.5927L24.3686 13.5408L24.3039 13.4896L24.2388 13.4388L24.1732 13.3889L24.1074 13.3399L24.0408 13.2913L23.9738 13.2433L23.9067 13.1964L23.8387 13.1498L23.7709 13.1044L23.7024 13.0594L23.6334 13.0151L23.564 12.9715L23.4945 12.9289L23.4243 12.8867L23.354 12.8455L23.2831 12.8048L23.2122 12.7651L23.1407 12.726L23.0689 12.6876L22.9968 12.65L22.9245 12.6133L22.8518 12.5771L22.7787 12.5417L22.7055 12.5071L22.6321 12.4734L22.558 12.4402L22.4842 12.4079L22.4098 12.3764L22.3351 12.3455L22.2603 12.3156L22.1854 12.2864L22.1101 12.258L22.0344 12.2301L21.9589 12.2033L21.8829 12.1771L21.8068 12.1517L21.7307 12.1272L21.6543 12.1034L21.5779 12.0804L21.5008 12.058L21.424 12.0366L21.3471 12.0159L21.2699 11.996L21.1927 11.9768L21.1151 11.9585L21.0377 11.9409L20.9603 11.9242L20.8825 11.9082L20.8045 11.8929L20.727 11.8785L20.649 11.8649L20.5711 11.852L20.4929 11.8398L20.4151 11.8286L20.3367 11.818L20.2588 11.8083L20.1807 11.7993L20.1026 11.7911L20.0245 11.7838L19.9463 11.7771L19.8684 11.7712L19.7901 11.7662L19.7122 11.7619L19.6344 11.7584L19.5561 11.7556L19.4784 11.7536L19.4006 11.7524L19.3229 11.752L19.2698 11.7522L19.3101 15.1507L19.3341 15.1507L19.3787 15.1514L19.4235 15.1525L19.4683 15.1539L19.5131 15.156L19.5581 15.1584L19.603 15.1613L19.648 15.1647L19.693 15.1686L19.7381 15.1729L19.7832 15.1777L19.8283 15.1829L19.8735 15.1886L19.9186 15.1949L19.9638 15.2015L20.009 15.2087L20.0541 15.2164L20.0992 15.2245L20.1444 15.2331L20.1895 15.2421L20.2346 15.2517L20.2797 15.2617L20.3248 15.2723L20.3697 15.2833L20.4148 15.2947L20.4597 15.3067L20.5045 15.3191L20.5493 15.3319L20.5941 15.3454L20.6387 15.3592L20.6833 15.3736L20.7278 15.3885L20.7722 15.4038L20.8166 15.4195L20.8608 15.4358L20.9049 15.4526L20.9489 15.4698L20.9928 15.4875L21.0366 15.5057L21.0802 15.5243L21.1238 15.5435L21.1672 15.5631L21.2105 15.5832L21.2536 15.6038L21.2966 15.6248L21.3394 15.6463L21.382 15.6683L21.4245 15.6908L21.4668 15.7137L21.5089 15.7371L21.5509 15.761L21.5926 15.7853L21.6341 15.81L21.6755 15.8353L21.7167 15.8611L21.7576 15.8873L21.7983 15.9138L21.8388 15.9409L21.8792 15.9685L21.9192 15.9965L21.959 16.025L21.9986 16.0539L22.0379 16.0832L22.077 16.113L22.1158 16.1433L22.1544 16.174L22.1927 16.2051L22.2307 16.2366L22.2685 16.2687L22.3059 16.3011L22.3431 16.3339L22.38 16.3672L22.4166 16.401L22.4528 16.4351L22.4887 16.4697L22.5245 16.5047L22.5598 16.5401L22.5948 16.5759L22.6295 16.6121L22.6638 16.6487L22.6979 16.6858L22.7315 16.7232L22.7649 16.7611L22.7979 16.7993L22.8304 16.8379L22.8628 16.8769L22.8946 16.9163L22.9261 16.9561L22.9573 16.9963L22.9881 17.0369L23.0185 17.0777L23.0485 17.1191L23.078 17.1606L23.1073 17.2027L23.1361 17.2451L23.1644 17.2878L23.1924 17.3309L23.22 17.3743L23.2471 17.4181L23.2739 17.4622L23.3002 17.5067L23.326 17.5514L23.3515 17.5965L23.3764 17.642L23.401 17.6877L23.4251 17.7338L23.4487 17.7801L23.4719 17.8268L23.4946 17.8738L23.5168 17.9211L23.5386 17.9686L23.5599 18.0165L23.5808 18.0647L23.6012 18.1131L23.6211 18.1618L23.6404 18.2108L23.6593 18.26L23.6778 18.3095L23.6957 18.3593L23.7131 18.4094L23.73 18.4596L23.7464 18.5101L23.7622 18.5609L23.7776 18.6118L23.7925 18.663L23.8068 18.7145L23.8206 18.7661L23.834 18.8179L23.8466 18.8701L23.8589 18.9224L23.8706 18.9748L23.8818 19.0275L23.8924 19.0803L23.9024 19.1333L23.9119 19.1866L23.9209 19.2399L23.9294 19.2934L23.9372 19.3472L23.9445 19.401L23.9512 19.455L23.9575 19.5092L23.9631 19.5635L23.9682 19.6178L23.9727 19.6724L23.9766 19.7271L23.98 19.7818L23.9828 19.8368L23.9849 19.8918L23.9866 19.9468L23.9876 20.002L23.9882 20.0573L23.988 20.1126L23.9873 20.168L23.9861 20.2236L23.9842 20.2791L23.9818 20.3347L23.9787 20.3904L23.9751 20.4461L23.9709 20.5018L23.966 20.5576L23.9606 20.6134L23.9547 20.6692L23.948 20.725L23.9408 20.7809L23.9331 20.8368L23.9247 20.8927L23.9157 20.9485L23.9061 21.0043L23.8959 21.0601L23.8851 21.1159L23.8737 21.1716L23.8617 21.2273L23.8491 21.283L23.8359 21.3386L23.8221 21.3941L23.8077 21.4497L23.7927 21.505L23.7771 21.5604L23.7609 21.6156L23.744 21.6708L23.7267 21.7258L23.7087 21.7808L23.69 21.8357L23.6708 21.8904L23.651 21.945L23.6305 21.9995L23.6095 22.0538L23.5879 22.1081L23.5657 22.1621L23.5429 22.216L23.5195 22.2697L23.4955 22.3234L23.4709 22.3768L23.4457 22.43L23.4199 22.4831L23.3936 22.5359L23.3666 22.5886L23.339 22.6411L23.3109 22.6933L23.2822 22.7453L23.2529 22.7971L23.223 22.8487L23.1925 22.9001L23.1615 22.9512L23.1298 23.0021L23.0977 23.0527L23.0649 23.103L23.0315 23.1532L22.9977 23.2029L22.9632 23.2525L22.9282 23.3018L22.8926 23.3507L22.8565 23.3994L22.8197 23.4478L22.7825 23.4959L22.7447 23.5436L22.7063 23.5911L22.6674 23.6382L22.628 23.685L22.588 23.7314L22.5474 23.7775L22.5064 23.8232L22.4648 23.8687L22.4227 23.9137L22.3801 23.9584L22.3369 24.0027L22.2932 24.0467L22.249 24.0901L22.2044 24.1334L22.1591 24.1761L22.1134 24.2184L22.0672 24.2604L22.0205 24.302L21.9733 24.3431L21.9256 24.3838L21.8774 24.424L21.8287 24.4639L21.7796 24.5033L21.73 24.5422L21.6799 24.5807L21.6294 24.6188L21.5784 24.6564L21.527 24.6935L21.4751 24.7302L21.4228 24.7664L21.3699 24.8021L21.3167 24.8374L21.2631 24.872L21.209 24.9063L21.1544 24.9401L21.0995 24.9733L21.0442 25.006L20.9884 25.0382L20.9323 25.0699L20.8756 25.101L20.8188 25.1317L20.7614 25.1618L20.7037 25.1914L20.6456 25.2204L20.5871 25.2489L20.5283 25.2768L20.469 25.3042L20.4095 25.331L20.3496 25.3572L20.2894 25.383L20.2288 25.4081L20.1678 25.4326L20.1065 25.4565L20.045 25.4799L19.983 25.5027L19.9208 25.5249L19.8584 25.5465L19.7955 25.5675L19.7324 25.5879L19.6691 25.6076L19.6054 25.6268L19.5414 25.6455L19.4772 25.6634L19.4128 25.6807L19.3481 25.6974L19.2831 25.7135L19.2178 25.7289L19.1524 25.7438L19.0866 25.7579L19.0208 25.7715L18.9546 25.7844L18.8882 25.7966L18.8217 25.8082L18.7549 25.8192L18.6881 25.8295L18.6209 25.8391L18.5537 25.8481L18.4861 25.8565L18.4185 25.8641L18.3508 25.871L18.2828 25.8774L18.2147 25.883L18.1465 25.8881L18.0781 25.8923L18.0097 25.896L17.9411 25.8989L17.8724 25.9012L17.8035 25.9027L17.7347 25.9036L17.6657 25.9039L17.5967 25.9034L17.5276 25.9023L17.4583 25.9004L17.3891 25.8979L17.3198 25.8946L17.2504 25.8907L17.181 25.8861L17.1116 25.8808L17.0422 25.8747L16.9727 25.868L16.9033 25.8606L16.8338 25.8524L16.7644 25.8436L16.6949 25.834L16.6255 25.8239L16.5561 25.8129L16.4868 25.8013L16.4175 25.7889L16.3482 25.7759L16.279 25.7622L16.2099 25.7477L16.1408 25.7326L16.0719 25.7167L16.003 25.7001L15.9342 25.6829L15.8655 25.6649L15.797 25.6462L15.7285 25.6268L15.6602 25.6067L15.592 25.586L15.524 25.5644L15.4561 25.5423L15.3883 25.5194L15.3208 25.4958L15.2534 25.4715L15.1861 25.4465L15.1192 25.4209L15.0523 25.3945L14.9857 25.3674L14.9192 25.3397L14.8531 25.3112L14.7871 25.2821L14.7213 25.2523L14.6558 25.2217L14.5905 25.1905L14.5255 25.1586L14.4608 25.1261L14.3963 25.0928L14.3321 25.0589L14.2682 25.0243L14.2046 24.9891L14.1413 24.9531L14.0782 24.9165L14.0155 24.8792L13.9532 24.8413L13.8911 24.8027L13.8294 24.7635L13.768 24.7236L13.707 24.683L13.6463 24.6418L13.5861 24.5999L13.5261 24.5574L13.4665 24.5143L13.4074 24.4705L13.3486 24.4261L13.2903 24.3811L13.2323 24.3354L13.1748 24.2891L13.1176 24.2422L13.0609 24.1947L13.0047 24.1465L12.9488 24.0977L12.8935 24.0484L12.8386 23.9984L12.7841 23.9478L12.7301 23.8967L12.6766 23.8449L12.6235 23.7926L12.571 23.7397L12.519 23.6862L12.4674 23.6321L12.4164 23.5776L12.3659 23.5223L12.3159 23.4666L12.2664 23.4103L12.2175 23.3534L12.1691 23.2961L12.1212 23.2381L12.074 23.1796L12.0273 23.1207L11.9811 23.0612L11.9354 23.0011L11.8904 22.9405L11.846 22.8795L11.8022 22.8179L11.7589 22.7558L11.7162 22.6933L11.6742 22.6302L11.6328 22.5667L11.592 22.5027L11.5518 22.4382L11.5123 22.3733L11.4733 22.3079L11.435 22.2421L11.3974 22.1758L11.3604 22.1091L11.324 22.0419L11.2884 21.9743L11.2534 21.9062L11.219 21.8378L11.1853 21.7691L11.1524 21.6997L11.1201 21.6302L11.0885 21.5601L11.0576 21.4897L11.0273 21.4189L10.9978 21.3478L10.969 21.2762L10.9409 21.2044L10.9136 21.1321L10.887 21.0595L10.8611 20.9866L10.8359 20.9134L10.8114 20.8399L10.7877 20.766L10.7648 20.6918L10.7425 20.6174L10.721 20.5426L10.7003 20.4675L10.6804 20.3922L10.6612 20.3165L10.6428 20.2407L10.6251 20.1646L10.6082 20.0882L10.5921 20.0116L10.5768 19.9347L10.5622 19.8576L10.5485 19.7803L10.5355 19.7028L10.5233 19.6251L10.5119 19.5472L10.5013 19.4691L10.4916 19.3908L10.4826 19.3124L10.4744 19.2337L10.467 19.155L10.4604 19.076L10.4547 18.997L10.4497 18.9178L10.4456 18.8385L10.4422 18.7591L10.4397 18.6795L10.4381 18.5998L10.4373 18.5202L10.4372 18.4403L10.438 18.3604L10.4397 18.2805L10.4421 18.2004L10.4455 18.1203L10.4496 18.0402L10.4546 17.9601L10.4603 17.8799L10.467 17.7997L10.4745 17.7195L10.4827 17.6393L10.4919 17.5591L10.5019 17.4789L10.5127 17.3987L10.5244 17.3186L10.5369 17.2385L10.5503 17.1585L10.5645 17.0785L10.5795 16.9985L10.5954 16.9187L10.6122 16.8389L10.6297 16.7593L10.6481 16.6797L10.6674 16.6003L10.6874 16.5209L10.7084 16.4417L10.7302 16.3626L10.7528 16.2837L10.7762 16.2048L10.8005 16.1263L10.8256 16.0478L10.8515 15.9694L10.8784 15.8914L10.906 15.8134L10.9344 15.7358L10.9637 15.6583L10.9939 15.581L11.0248 15.504L11.0566 15.4271L11.0892 15.3506L11.1226 15.2742L11.1569 15.1982L11.1919 15.1224L11.2278 15.0469L11.2644 14.9717L11.302 14.8967L11.3402 14.8221L11.3794 14.7478L11.4193 14.6738L11.4601 14.6002L11.5016 14.5268L11.5439 14.4538L11.587 14.3813L11.6309 14.309L11.6756 14.2371L11.7211 14.1656L11.7674 14.0944L11.8144 14.0236L11.8622 13.9533L11.9108 13.8834L11.9601 13.8139L12.0102 13.7449L12.0611 13.6762L12.1127 13.6079L12.1651 13.5403L12.2182 13.4729L12.2721 13.4061L12.3267 13.3397L12.382 13.2739L12.4381 13.2084L12.4949 13.1435L12.5524 13.0792L12.6107 13.0153L12.6696 12.952L12.7293 12.8892L12.7897 12.8269L12.8507 12.7651L12.9125 12.7039L12.9749 12.6432L13.0381 12.5832L13.1019 12.5237L13.1663 12.4647L13.2314 12.4064L13.2972 12.3486L13.3637 12.2915L13.4308 12.2349L13.4986 12.179L13.5669 12.1237L13.6359 12.069L13.7055 12.015L13.7758 11.9616L13.8467 11.9089L13.9181 11.8568L13.9902 11.8054L14.0629 11.7546L14.1362 11.7044L14.2101 11.655L14.2844 11.6063L14.3594 11.5584L14.435 11.511L14.5111 11.4644L14.5878 11.4185L14.6649 11.3733L14.7427 11.3288L14.8209 11.2851L14.8997 11.242L14.979 11.1998L15.0588 11.1583L15.139 11.1175L15.2198 11.0776L15.3011 11.0383L15.3828 10.9999L15.465 10.9622L15.5476 10.9253L15.6307 10.8892L15.7143 10.8538L15.7983 10.8192L15.8827 10.7856L15.9676 10.7526L16.0528 10.7205L16.1384 10.6891L16.2245 10.6587L16.311 10.629L16.3978 10.6002L16.485 10.5722L16.5725 10.545L16.6604 10.5187L16.7486 10.4933L16.8372 10.4687L16.9261 10.4449L17.0154 10.422L17.1049 10.3999L17.1948 10.3788L17.285 10.3585L17.3753 10.3391L17.4661 10.3205L17.557 10.3029L17.6026 10.2944ZM18.7205 16.8299L17.683 17.0778L17.6221 11.9383L17.5732 11.9493L17.4996 11.9667L17.426 11.9848L17.353 12.0035L17.2801 12.0229L17.2076 12.0431L17.1352 12.0641L17.0634 12.0855L16.9915 12.1078L16.9205 12.1306L16.8493 12.1543L16.7785 12.1786L16.7081 12.2035L16.638 12.2291L16.5685 12.2553L16.4991 12.2823L16.4301 12.3098L16.3615 12.338L16.293 12.367L16.2254 12.3963L16.1578 12.4266L16.0908 12.4573L16.0239 12.4888L15.9577 12.5207L15.8916 12.5534L15.8262 12.5866L15.7612 12.6205L15.6965 12.6549L15.6323 12.69L15.5685 12.7256L15.5051 12.7619L15.4425 12.7986L15.3798 12.8361L15.3178 12.874L15.2564 12.9126L15.1954 12.9516L15.1347 12.9913L15.0747 13.0316L15.0151 13.0723L14.956 13.1136L14.8974 13.1553L14.8392 13.1977L14.7816 13.2407L14.7245 13.2841L14.6679 13.328L14.6119 13.3723L14.5565 13.4172L14.5014 13.4627L14.4468 13.5087L14.393 13.5549L14.3396 13.6018L14.2868 13.6491L14.2345 13.6969L14.1827 13.7452L14.1316 13.7939L14.081 13.843L14.0308 13.8927L13.9814 13.9426L13.9325 13.9931L13.8843 14.0439L13.8364 14.0954L13.7893 14.147L13.7428 14.1991L13.6968 14.2517L13.6515 14.3044L13.6067 14.3578L13.5627 14.4113L13.519 14.4654L13.4762 14.5197L13.4338 14.5745L13.3921 14.6297L13.351 14.6851L13.3105 14.7408L13.2707 14.7969L13.2315 14.8534L13.1929 14.9101L13.155 14.9673L13.1177 15.0245L13.0811 15.0822L13.045 15.1402L13.0097 15.1984L12.9749 15.2571L12.9408 15.3157L12.9073 15.3748L12.8745 15.4341L12.8424 15.4936L12.8109 15.5534L12.7802 15.6134L12.7499 15.6738L12.7205 15.7341L12.6916 15.795L12.6634 15.8558L12.6359 15.917L12.609 15.9783L12.5828 16.0398L12.5574 16.1014L12.5325 16.1633L12.5084 16.2254L12.4848 16.2876L12.462 16.3498L12.4399 16.4123L12.4184 16.475L12.3976 16.5377L12.3774 16.6006L12.358 16.6637L12.3392 16.7268L12.3212 16.7899L12.3037 16.8532L12.2869 16.9167L12.2708 16.9802L12.2554 17.0437L12.2407 17.1074L12.2266 17.1711L12.2133 17.2349L12.2006 17.2986L12.1886 17.3625L12.1772 17.4265L12.1666 17.4903L12.1566 17.5542L12.1472 17.6183L12.1386 17.6821L12.1307 17.7462L12.1234 17.81L12.1167 17.874L12.1108 17.9381L12.1055 18.0019L12.1009 18.0659L12.0969 18.1298L12.0936 18.1935L12.091 18.2572L12.089 18.3209L12.0877 18.3846L12.087 18.4482L12.0871 18.5116L12.0877 18.575L12.0891 18.6384L12.0911 18.7016L12.0937 18.7647L12.0969 18.8277L12.1009 18.8905L12.1055 18.9532L12.1107 19.0159L12.1165 19.0784L12.123 19.1408L12.1301 19.2029L12.1379 19.2651L12.1463 19.3268L12.1553 19.3887L12.165 19.4501L12.1752 19.5115L12.1861 19.5728L12.1977 19.6338L12.2098 19.6946L12.2225 19.7551L12.2359 19.8156L12.2499 19.8757L12.2644 19.9358L12.2796 19.9954L12.2954 20.055L12.3117 20.1142L12.3286 20.1733L12.3462 20.232L12.3643 20.2906L12.383 20.3489L12.4023 20.4067L12.4222 20.4646L12.4426 20.5221L12.4636 20.5791L12.4851 20.6361L12.5072 20.6927L12.5299 20.749L12.5531 20.805L12.5768 20.8606L12.6012 20.9161L12.626 20.9711L12.6514 21.0259L12.6774 21.0802L12.7037 21.1343L12.7308 21.1882L12.7582 21.2415L12.7862 21.2945L12.8147 21.3472L12.8438 21.3995L12.8733 21.4516L12.9033 21.5032L12.9338 21.5544L12.9649 21.6053L12.9963 21.6558L13.0282 21.7059L13.0607 21.7556L13.0936 21.805L13.127 21.854L13.1607 21.9024L13.195 21.9506L13.2298 21.9983L13.2649 22.0456L13.3006 22.0926L13.3366 22.139L13.3731 22.185L13.41 22.2307L13.4474 22.2759L13.485 22.3206L13.5232 22.365L13.5618 22.4089L13.6007 22.4523L13.6402 22.4953L13.6798 22.5377L13.7199 22.5799L13.7604 22.6215L13.8012 22.6627L13.8425 22.7033L13.8841 22.7436L13.9261 22.7834L13.9684 22.8226L14.011 22.8614L14.0541 22.8998L14.0974 22.9376L14.141 22.9749L14.185 23.0118L14.2292 23.0482L14.2739 23.0841L14.3189 23.1195L14.364 23.1543L14.4095 23.1887L14.4554 23.2227L14.5015 23.256L14.5478 23.2889L14.5944 23.3213L14.6413 23.3532L14.6885 23.3845L14.7359 23.4153L14.7835 23.4456L14.8315 23.4755L14.8796 23.5047L14.928 23.5335L14.9767 23.5617L15.0254 23.5894L15.0743 23.6166L15.1237 23.6433L15.1732 23.6694L15.2228 23.695L15.2725 23.72L15.3227 23.7446L15.3727 23.7685L15.4232 23.792L15.4737 23.815L15.5243 23.8373L15.5753 23.8592L15.6263 23.8805L15.6773 23.9013L15.7287 23.9215L15.7801 23.9412L15.8317 23.9603L15.8832 23.979L15.9352 23.9971L15.9869 24.0145L16.0389 24.0315L16.091 24.048L16.1432 24.0639L16.1954 24.0793L16.2477 24.0941L16.3002 24.1083L16.3527 24.1221L16.4051 24.1352L16.4577 24.1479L16.5103 24.16L16.5629 24.1715L16.6157 24.1826L16.6684 24.193L16.7212 24.203L16.7739 24.2124L16.8268 24.2213L16.8796 24.2296L16.9325 24.2374L16.9851 24.2446L17.038 24.2513L17.0907 24.2575L17.1435 24.2632L17.1963 24.2682L17.249 24.2728L17.3017 24.2768L17.3543 24.2803L17.4069 24.2833L17.4594 24.2857L17.5118 24.2877L17.5644 24.2891L17.6166 24.29L17.6688 24.2903L17.721 24.2902L17.773 24.2895L17.8251 24.2883L17.8771 24.2866L17.9288 24.2844L17.9804 24.2816L18.0322 24.2784L18.0835 24.2746L18.1349 24.2704L18.186 24.2656L18.2372 24.2604L18.2881 24.2545L18.3388 24.2483L18.3896 24.2416L18.44 24.2343L18.4902 24.2265L18.5405 24.2183L18.5905 24.2096L18.6403 24.2004L18.6899 24.1907L18.7395 24.1805L18.7886 24.1699L18.8376 24.1588L18.8865 24.1472L18.9352 24.1352L18.9837 24.1227L19.0319 24.1098L19.0799 24.0964L19.1279 24.0824L19.1754 24.0681L19.2226 24.0533L19.2699 24.038L19.3167 24.0224L19.3634 24.0063L19.4097 23.9898L19.4558 23.9728L19.5018 23.9553L19.5474 23.9375L19.5927 23.9192L19.6378 23.9006L19.6826 23.8814L19.7273 23.8619L19.7714 23.842L19.8155 23.8216L19.8592 23.8009L19.9025 23.7798L19.9457 23.7583L19.9883 23.7364L20.0309 23.7141L20.0731 23.6913L20.115 23.6682L20.1565 23.6448L20.1978 23.621L20.2388 23.5968L20.2793 23.5722L20.3195 23.5473L20.3595 23.522L20.3991 23.4964L20.4384 23.4704L20.4773 23.4441L20.5159 23.4174L20.5542 23.3904L20.592 23.3631L20.6295 23.3354L20.6667 23.3074L20.7035 23.279L20.74 23.2504L20.7762 23.2214L20.8118 23.1922L20.8472 23.1627L20.8821 23.1328L20.9167 23.1027L20.951 23.0722L20.9848 23.0414L21.0183 23.0105L21.0513 22.9792L21.084 22.9476L21.1163 22.9158L21.1483 22.8837L21.1798 22.8514L21.2109 22.8187L21.2416 22.786L21.272 22.7528L21.3018 22.7195L21.3314 22.6859L21.3605 22.652L21.3891 22.6181L21.4175 22.5837L21.4453 22.5493L21.4728 22.5146L21.4999 22.4797L21.5265 22.4446L21.5527 22.4093L21.5785 22.3739L21.6039 22.3381L21.6289 22.3021L21.6534 22.2662L21.6775 22.2299L21.7013 22.1935L21.7244 22.1569L21.7473 22.1202L21.7697 22.0833L21.7917 22.0462L21.8133 22.009L21.8343 21.9717L21.855 21.9342L21.8753 21.8965L21.8951 21.8589L21.9144 21.821L21.9334 21.783L21.952 21.7449L21.9701 21.7066L21.9877 21.6683L22.0049 21.6299L22.0216 21.5915L22.038 21.5527L22.0539 21.5141L22.0694 21.4752L22.0844 21.4365L22.0991 21.3973L22.1131 21.3587L22.1269 21.3194L22.1402 21.2802L22.153 21.2411L22.1654 21.2019L22.1774 21.1627L22.189 21.1231L22.2 21.084L22.2108 21.0443L22.2209 21.0053L22.2308 20.9657L22.2401 20.926L22.249 20.8867L22.2575 20.8475L22.2656 20.8077L22.2732 20.7683L22.2804 20.7286L22.2872 20.6894L22.2936 20.65L22.2995 20.6105L22.305 20.5709L22.3101 20.5315L22.3147 20.4923L22.319 20.4531L22.3228 20.4136L22.3262 20.3744L22.3291 20.3352L22.3317 20.296L22.3338 20.257L22.3355 20.218L22.3368 20.1792L22.3377 20.1401L22.3382 20.1011L22.3383 20.0625L22.338 20.0239L22.3372 19.9854L22.3361 19.9469L22.3345 19.9083L22.3326 19.8704L22.3302 19.8317L22.3275 19.794L22.3244 19.7561L22.3209 19.7179L22.3169 19.6802L22.3127 19.6429L22.3079 19.605L22.3029 19.5679L22.2974 19.5305L22.2916 19.4937L22.2853 19.4565L22.2787 19.4196L22.2718 19.3831L22.2645 19.3466L22.2568 19.3101L22.2487 19.274L22.2403 19.2379L22.2315 19.202L22.2224 19.1665L22.2128 19.1307L22.203 19.0956L22.1928 19.0601L22.1822 19.0253L22.1713 18.9904L22.1601 18.9558L22.1485 18.9214L22.1365 18.887L22.1244 18.8531L22.1118 18.8194L22.0988 18.7855L22.0856 18.7522L22.072 18.7187L22.0582 18.6861L22.0439 18.653L22.0295 18.6205L22.0146 18.5883L21.9995 18.5561L21.9841 18.5242L21.9684 18.4925L21.9523 18.461L21.936 18.4299L21.9194 18.3989L21.9026 18.3682L21.8854 18.3377L21.8678 18.3075L21.8502 18.2775L21.8322 18.2478L21.8138 18.2182L21.7953 18.1891L21.7764 18.1601L21.7574 18.1314L21.738 18.1028L21.7185 18.0748L21.6986 18.0468L21.6785 18.0191L21.6582 17.9918L21.6375 17.9647L21.6168 17.9378L21.5957 17.9112L21.5744 17.885L21.5529 17.859L21.5312 17.8333L21.5093 17.8078L21.4872 17.7827L21.4648 17.7578L21.4422 17.7332L21.4194 17.7088L21.3965 17.6849L21.3733 17.6612L21.3499 17.6377L21.3264 17.6147L21.3026 17.5919L21.2787 17.5694L21.2544 17.5471L21.2303 17.5252L21.2058 17.5035L21.1812 17.4823L21.1564 17.4612L21.1315 17.4406L21.1064 17.4202L21.0812 17.4001L21.0558 17.3803L21.0302 17.3608L21.0045 17.3417L20.9787 17.3228L20.9527 17.3042L20.9267 17.286L20.9005 17.268L20.8742 17.2505L20.8477 17.2332L20.8211 17.2162L20.7945 17.1995L20.7676 17.1831L20.7408 17.1671L20.7139 17.1515L20.6868 17.1361L20.6595 17.1209L20.6323 17.1062L20.6051 17.0917L20.5776 17.0776L20.5502 17.0638L20.5225 17.0502L20.495 17.037L20.4672 17.0243L20.4395 17.0117L20.4117 16.9994L20.3837 16.9874L20.356 16.9759L20.3279 16.9647L20.2998 16.9537L20.2718 16.9431L20.2437 16.9327L20.2156 16.9227L20.1875 16.913L20.1593 16.9036L20.1312 16.8946L20.1029 16.8857L20.0747 16.8773L20.0466 16.8692L20.0181 16.8613L19.9901 16.8539L19.9618 16.8467L19.9335 16.8397L19.9053 16.8332L19.8771 16.8269L19.8488 16.8209L19.8206 16.8152L19.7926 16.8098L19.7645 16.8048L19.7362 16.8L19.7083 16.7956L19.68 16.7915L19.6522 16.7876L19.6241 16.784L19.5962 16.7808L19.5685 16.7778L19.5406 16.7752L19.5129 16.7728L19.4852 16.7707L19.4575 16.7689L19.4299 16.7674L19.4023 16.7662L19.3751 16.7653L19.3476 16.7646L19.3203 16.7642L19.2931 16.7641L19.266 16.7644L19.2389 16.7648L19.212 16.7656L19.185 16.7666L19.1584 16.7679L19.1316 16.7695L19.1051 16.7713L19.0786 16.7734L19.0523 16.7758L19.0261 16.7784L18.9998 16.7813L18.9739 16.7845L18.9479 16.7879L18.9222 16.7916L18.8964 16.7955L18.871 16.7997L18.8455 16.8041L18.8204 16.8088L18.7951 16.8137L18.7701 16.8188L18.7452 16.8242L18.7205 16.8299Z" fill="#0771DE"/>
</svg>
