<svg width="20" height="20" viewBox="0 0 20 20" fill="none" xmlns="http://www.w3.org/2000/svg">
<rect x="-0.5" y="0.5" width="19" height="19" rx="9.5" transform="matrix(-1 0 0 1 19 0)" fill="white" stroke="#EAEAEA"/>
<path d="M8.03938 13.6275H11.9609C12.1217 13.6275 12.2551 13.4942 12.2551 13.3334C12.2551 13.1726 12.1217 13.0393 11.9609 13.0393H8.03938C6.91781 13.0393 6.37271 12.4942 6.37271 11.3726V8.62752C6.37271 7.50595 6.91781 6.96086 8.03938 6.96086H11.9609C13.0825 6.96086 13.6276 7.50595 13.6276 8.62752C13.6276 8.78831 13.7609 8.92164 13.9217 8.92164C14.0825 8.92164 14.2159 8.78831 14.2159 8.62752C14.2159 7.19615 13.3923 6.37262 11.9609 6.37262H8.03938C6.60801 6.37262 5.78448 7.19615 5.78448 8.62752V11.3726C5.78448 12.804 6.60801 13.6275 8.03938 13.6275Z" fill="#292D32"/>
<path d="M10.0003 10.3412C10.3297 10.3412 10.663 10.2393 10.9179 10.0314L12.1454 9.05105C12.2709 8.94909 12.2944 8.76477 12.1924 8.63928C12.0905 8.51379 11.9061 8.49026 11.7807 8.59222L10.5532 9.57262C10.2552 9.81183 9.74928 9.81183 9.45124 9.57262L8.22379 8.59222C8.0983 8.49026 7.91007 8.50987 7.81203 8.63928C7.71007 8.76477 7.72968 8.95301 7.85909 9.05105L9.08654 10.0314C9.33752 10.2393 9.67085 10.3412 10.0003 10.3412Z" fill="#292D32"/>
<path d="M11.5688 12.0589H13.9217C14.0825 12.0589 14.2159 11.9256 14.2159 11.7648C14.2159 11.604 14.0825 11.4707 13.9217 11.4707H11.5688C11.408 11.4707 11.2747 11.604 11.2747 11.7648C11.2747 11.9256 11.408 12.0589 11.5688 12.0589Z" fill="#292D32"/>
<path d="M12.7453 10.4903H13.9217C14.0825 10.4903 14.2159 10.3569 14.2159 10.1962C14.2159 10.0354 14.0825 9.90204 13.9217 9.90204H12.7453C12.5845 9.90204 12.4511 10.0354 12.4511 10.1962C12.4511 10.3569 12.5845 10.4903 12.7453 10.4903Z" fill="#292D32"/>
</svg>
