<svg width="14" height="14" viewBox="0 0 14 14" fill="none" xmlns="http://www.w3.org/2000/svg">
<path d="M9.33334 13.2709H4.66668C2.90501 13.2709 1.89584 12.2617 1.89584 10.5V4.81252C1.89584 2.97502 2.82918 2.04169 4.66668 2.04169C4.90584 2.04169 5.10418 2.24002 5.10418 2.47919C5.10418 2.71252 5.19751 2.93419 5.36085 3.09752C5.52418 3.26085 5.74584 3.35419 5.97918 3.35419H8.02084C8.50501 3.35419 8.89584 2.96335 8.89584 2.47919C8.89584 2.24002 9.09418 2.04169 9.33334 2.04169C11.1708 2.04169 12.1042 2.97502 12.1042 4.81252V10.5C12.1042 12.2617 11.095 13.2709 9.33334 13.2709ZM4.2875 2.92836C3.36583 3.00419 2.77084 3.41835 2.77084 4.81252V10.5C2.77084 11.795 3.37168 12.3959 4.66668 12.3959H9.33334C10.6283 12.3959 11.2292 11.795 11.2292 10.5V4.81252C11.2292 3.41835 10.6342 3.01002 9.71252 2.92836C9.51419 3.67502 8.83168 4.22919 8.02084 4.22919H5.97918C5.51251 4.22919 5.07501 4.04835 4.74251 3.71585C4.52085 3.49418 4.36916 3.22586 4.2875 2.92836Z" fill="#92A1AD"/>
<path d="M8.02082 4.22919H5.97916C5.51249 4.22919 5.07499 4.04835 4.74249 3.71585C4.40999 3.38335 4.22916 2.94585 4.22916 2.47919C4.22916 1.51669 5.01666 0.729187 5.97916 0.729187H8.02082C8.48749 0.729187 8.92499 0.910023 9.25749 1.24252C9.58999 1.57502 9.77082 2.01252 9.77082 2.47919C9.77082 3.44169 8.98332 4.22919 8.02082 4.22919ZM5.97916 1.60419C5.49499 1.60419 5.10416 1.99502 5.10416 2.47919C5.10416 2.71252 5.19749 2.93419 5.36082 3.09752C5.52416 3.26085 5.74582 3.35419 5.97916 3.35419H8.02082C8.50499 3.35419 8.89582 2.96335 8.89582 2.47919C8.89582 2.24585 8.80249 2.02419 8.63915 1.86086C8.47582 1.69752 8.25416 1.60419 8.02082 1.60419H5.97916Z" fill="#92A1AD"/>
<path d="M6.99999 8.02081H4.66666C4.42749 8.02081 4.22916 7.82248 4.22916 7.58331C4.22916 7.34415 4.42749 7.14581 4.66666 7.14581H6.99999C7.23916 7.14581 7.43749 7.34415 7.43749 7.58331C7.43749 7.82248 7.23916 8.02081 6.99999 8.02081Z" fill="#92A1AD"/>
<path d="M9.33332 10.3542H4.66666C4.42749 10.3542 4.22916 10.1559 4.22916 9.91669C4.22916 9.67752 4.42749 9.47919 4.66666 9.47919H9.33332C9.57249 9.47919 9.77082 9.67752 9.77082 9.91669C9.77082 10.1559 9.57249 10.3542 9.33332 10.3542Z" fill="#92A1AD"/>
</svg>
