<svg width="10" height="10" viewBox="0 0 10 10" fill="none" xmlns="http://www.w3.org/2000/svg">
<path d="M3.03938 8.62752H6.96095C7.12173 8.62752 7.25507 8.49419 7.25507 8.3334C7.25507 8.17262 7.12173 8.03929 6.96095 8.03929H3.03938C1.91781 8.03929 1.37271 7.49419 1.37271 6.37262V3.62752C1.37271 2.50595 1.91781 1.96085 3.03938 1.96085H6.96095C8.08252 1.96085 8.62762 2.50595 8.62762 3.62752C8.62762 3.78831 8.76095 3.92164 8.92173 3.92164C9.08252 3.92164 9.21585 3.78831 9.21585 3.62752C9.21585 2.19615 8.39232 1.37262 6.96095 1.37262H3.03938C1.60801 1.37262 0.784478 2.19615 0.784478 3.62752V6.37262C0.784478 7.80399 1.60801 8.62752 3.03938 8.62752Z" fill="#292D32"/>
<path d="M5.00026 5.34124C5.32967 5.34124 5.66301 5.23928 5.91791 5.03144L7.14536 4.05105C7.27085 3.94909 7.29438 3.76477 7.19242 3.63928C7.09046 3.51379 6.90615 3.49026 6.78066 3.59222L5.5532 4.57262C5.25517 4.81183 4.74928 4.81183 4.45124 4.57262L3.22379 3.59222C3.0983 3.49026 2.91007 3.50987 2.81203 3.63928C2.71007 3.76477 2.72968 3.95301 2.85909 4.05105L4.08654 5.03144C4.33752 5.23928 4.67085 5.34124 5.00026 5.34124Z" fill="#292D32"/>
<path d="M6.56879 7.05891H8.92173C9.08252 7.05891 9.21585 6.92557 9.21585 6.76479C9.21585 6.60401 9.08252 6.47067 8.92173 6.47067H6.56879C6.40801 6.47067 6.27467 6.60401 6.27467 6.76479C6.27467 6.92557 6.40801 7.05891 6.56879 7.05891Z" fill="#292D32"/>
<path d="M7.74526 5.49027H8.92173C9.08252 5.49027 9.21585 5.35694 9.21585 5.19616C9.21585 5.03537 9.08252 4.90204 8.92173 4.90204H7.74526C7.58448 4.90204 7.45114 5.03537 7.45114 5.19616C7.45114 5.35694 7.58448 5.49027 7.74526 5.49027Z" fill="#292D32"/>
</svg>
