<svg width="22" height="23" viewBox="0 0 22 23" fill="none" xmlns="http://www.w3.org/2000/svg">
<g filter="url(#filter0_d_216_557)">
<path d="M13.6667 14.1667H8.33333C5.9 14.1667 4.5 12.7667 4.5 10.3333V4.66668C4.5 2.23334 5.9 0.833344 8.33333 0.833344H13.6667C16.1 0.833344 17.5 2.23334 17.5 4.66668V10.3333C17.5 12.7667 16.1 14.1667 13.6667 14.1667ZM8.33333 1.83334C6.42667 1.83334 5.5 2.76001 5.5 4.66668V10.3333C5.5 12.24 6.42667 13.1667 8.33333 13.1667H13.6667C15.5733 13.1667 16.5 12.24 16.5 10.3333V4.66668C16.5 2.76001 15.5733 1.83334 13.6667 1.83334H8.33333Z" fill="#9EA3A9"/>
</g>
<defs>
<filter id="filter0_d_216_557" x="0.5" y="0.833344" width="21" height="21.3333" filterUnits="userSpaceOnUse" color-interpolation-filters="sRGB">
<feFlood flood-opacity="0" result="BackgroundImageFix"/>
<feColorMatrix in="SourceAlpha" type="matrix" values="0 0 0 0 0 0 0 0 0 0 0 0 0 0 0 0 0 0 127 0" result="hardAlpha"/>
<feOffset dy="4"/>
<feGaussianBlur stdDeviation="2"/>
<feComposite in2="hardAlpha" operator="out"/>
<feColorMatrix type="matrix" values="0 0 0 0 0 0 0 0 0 0 0 0 0 0 0 0 0 0 0.25 0"/>
<feBlend mode="normal" in2="BackgroundImageFix" result="effect1_dropShadow_216_557"/>
<feBlend mode="normal" in="SourceGraphic" in2="effect1_dropShadow_216_557" result="shape"/>
</filter>
</defs>
</svg>
