<svg width="14" height="14" viewBox="0 0 14 14" fill="none" xmlns="http://www.w3.org/2000/svg">
<mask id="mask0_0_1493" style="mask-type:luminance" maskUnits="userSpaceOnUse" x="0" y="0" width="14" height="14">
<path d="M14 6.11959e-07L14 14L-6.11959e-07 14L0 0L14 6.11959e-07Z" fill="white"/>
</mask>
<g mask="url(#mask0_0_1493)">
<path d="M1.23047 7.02084C1.46926 7.02084 1.70571 7.06787 1.92632 7.15925C2.14693 7.25063 2.34738 7.38457 2.51623 7.55342L5.03032 10.0675L10.4441 4.65372L6.57713 0.786743L2.51623 4.84762C2.34738 5.01647 2.14693 5.15042 1.92632 5.2418C1.70571 5.33319 1.46926 5.38022 1.23047 5.38022C0.777437 5.38022 0.410156 5.74747 0.410156 6.20053C0.410156 6.65356 0.777437 7.02084 1.23047 7.02084Z" stroke="#1C1C28" stroke-width="0.75" stroke-miterlimit="10" stroke-linecap="round" stroke-linejoin="round"/>
<path d="M7.1581 10.2609L10.6384 6.78057C11.1723 6.24663 11.1723 5.38098 10.6384 4.84706L10.445 4.65372L5.03125 10.0675L5.2246 10.2609C5.75851 10.7948 6.62419 10.7948 7.1581 10.2609Z" stroke="#1C1C28" stroke-width="0.75" stroke-miterlimit="10" stroke-linecap="round" stroke-linejoin="round"/>
<path d="M13.1519 12.7744C13.7749 12.1514 13.7285 11.128 13.0516 10.564L9.67163 7.74728L8.12482 9.29409L10.9415 12.6741C11.5055 13.3509 12.5289 13.3973 13.1519 12.7744Z" stroke="#1C1C28" stroke-width="0.75" stroke-miterlimit="10" stroke-linecap="round" stroke-linejoin="round"/>
<path d="M2.5166 7.55379L3.28999 8.32718C3.61035 8.64754 4.12975 8.64754 4.45008 8.32718C4.77044 8.00682 4.77044 7.48743 4.45008 7.16707L4.00711 6.72413C3.71784 6.43486 3.71784 5.96583 4.00711 5.67656L4.023 5.6607C4.31227 5.3714 4.78127 5.3714 5.07053 5.6607L5.22355 5.81369C5.49051 6.08067 5.92336 6.08065 6.19032 5.81366L6.19034 5.81366C6.45727 5.54671 6.45725 5.11391 6.19032 4.84695L6.03727 4.69394C5.74803 4.40469 5.74803 3.93575 6.03725 3.64648L6.05316 3.63057C6.34246 3.34127 6.81146 3.34127 7.10073 3.63054L7.54369 4.07351C7.86403 4.39387 8.38342 4.39387 8.70378 4.07351C9.02414 3.75315 9.02414 3.23375 8.70378 2.91339L7.73701 1.94666" stroke="#1C1C28" stroke-width="0.75" stroke-miterlimit="10" stroke-linecap="round" stroke-linejoin="round"/>
<path d="M11.8009 12.0051C11.6407 11.845 11.6407 11.5852 11.8009 11.4251C11.9611 11.2649 12.2208 11.2649 12.3809 11.4251C12.5411 11.5852 12.5411 11.845 12.3809 12.0051C12.2208 12.1653 11.9611 12.1653 11.8009 12.0051Z" fill="black"/>
</g>
</svg>
