<svg width="18" height="13" viewBox="0 0 18 13" fill="none" xmlns="http://www.w3.org/2000/svg">
<path d="M17 0.839996H1C0.45 0.839996 0 1.29 0 1.84V8C0 11 1.5 13 5 13H13C16.5 13 18 11 18 8V1.84C18 1.29 17.55 0.839996 17 0.839996ZM6.21 9.21C6.11 9.3 6 9.37 5.88 9.42C5.76 9.47 5.63 9.5 5.5 9.5C5.37 9.5 5.24 9.47 5.12 9.42C5 9.37 4.89 9.3 4.79 9.21C4.61 9.02 4.5 8.76 4.5 8.5C4.5 8.24 4.61 7.98 4.79 7.79C4.89 7.7 5 7.63 5.12 7.58C5.36 7.48 5.64 7.48 5.88 7.58C6 7.63 6.11 7.7 6.21 7.79C6.39 7.98 6.5 8.24 6.5 8.5C6.5 8.76 6.39 9.02 6.21 9.21ZM6.42 5.38C6.37 5.5 6.3 5.61 6.21 5.71C6.11 5.8 6 5.87 5.88 5.92C5.76 5.97 5.63 6 5.5 6C5.37 6 5.24 5.97 5.12 5.92C5 5.87 4.89 5.8 4.79 5.71C4.7 5.61 4.63 5.5 4.58 5.38C4.53 5.26 4.5 5.13 4.5 5C4.5 4.87 4.53 4.74 4.58 4.62C4.63 4.5 4.7 4.39 4.79 4.29C4.89 4.2 5 4.13 5.12 4.08C5.36 3.98 5.64 3.98 5.88 4.08C6 4.13 6.11 4.2 6.21 4.29C6.3 4.39 6.37 4.5 6.42 4.62C6.47 4.74 6.5 4.87 6.5 5C6.5 5.13 6.47 5.26 6.42 5.38ZM9.71 5.71C9.61 5.8 9.5 5.87 9.38 5.92C9.26 5.97 9.13 6 9 6C8.87 6 8.74 5.97 8.62 5.92C8.5 5.87 8.39 5.8 8.29 5.71C8.11 5.52 8 5.26 8 5C8 4.74 8.11 4.48 8.29 4.29C8.39 4.2 8.5 4.13 8.62 4.08C8.86 3.97 9.14 3.97 9.38 4.08C9.5 4.13 9.61 4.2 9.71 4.29C9.89 4.48 10 4.74 10 5C10 5.26 9.89 5.52 9.71 5.71Z" fill="white"/>
</svg>
